%TF.GenerationSoftware,KiCad,Pcbnew,10.0.3*%
%TF.CreationDate,2026-07-07T22:15:06-07:00*%
%TF.ProjectId,101a power supply pcb,31303161-2070-46f7-9765-722073757070,rev?*%
%TF.SameCoordinates,Original*%
%TF.FileFunction,Copper,L2,Bot*%
%TF.FilePolarity,Positive*%
%FSLAX46Y46*%
G04 Gerber Fmt 4.6, Leading zero omitted, Abs format (unit mm)*
G04 Created by KiCad (PCBNEW 10.0.3) date 2026-07-07 22:15:06*
%MOMM*%
%LPD*%
G01*
G04 APERTURE LIST*
G04 Aperture macros list*
%AMRoundRect*
0 Rectangle with rounded corners*
0 $1 Rounding radius*
0 $2 $3 $4 $5 $6 $7 $8 $9 X,Y pos of 4 corners*
0 Add a 4 corners polygon primitive as box body*
4,1,4,$2,$3,$4,$5,$6,$7,$8,$9,$2,$3,0*
0 Add four circle primitives for the rounded corners*
1,1,$1+$1,$2,$3*
1,1,$1+$1,$4,$5*
1,1,$1+$1,$6,$7*
1,1,$1+$1,$8,$9*
0 Add four rect primitives between the rounded corners*
20,1,$1+$1,$2,$3,$4,$5,0*
20,1,$1+$1,$4,$5,$6,$7,0*
20,1,$1+$1,$6,$7,$8,$9,0*
20,1,$1+$1,$8,$9,$2,$3,0*%
G04 Aperture macros list end*
%TA.AperFunction,ComponentPad*%
%ADD10RoundRect,0.250001X-0.949999X0.949999X-0.949999X-0.949999X0.949999X-0.949999X0.949999X0.949999X0*%
%TD*%
%TA.AperFunction,ComponentPad*%
%ADD11C,2.400000*%
%TD*%
%TA.AperFunction,ComponentPad*%
%ADD12C,1.600000*%
%TD*%
%TA.AperFunction,ComponentPad*%
%ADD13C,2.200000*%
%TD*%
%TA.AperFunction,ComponentPad*%
%ADD14RoundRect,0.249999X-0.850001X-0.850001X0.850001X-0.850001X0.850001X0.850001X-0.850001X0.850001X0*%
%TD*%
%TA.AperFunction,ComponentPad*%
%ADD15C,3.200000*%
%TD*%
%TA.AperFunction,ComponentPad*%
%ADD16RoundRect,0.250000X1.350000X1.350000X-1.350000X1.350000X-1.350000X-1.350000X1.350000X-1.350000X0*%
%TD*%
%TA.AperFunction,ComponentPad*%
%ADD17C,2.000000*%
%TD*%
%TA.AperFunction,ComponentPad*%
%ADD18RoundRect,0.250000X-0.750000X0.750000X-0.750000X-0.750000X0.750000X-0.750000X0.750000X0.750000X0*%
%TD*%
%TA.AperFunction,ComponentPad*%
%ADD19O,2.000000X1.905000*%
%TD*%
%TA.AperFunction,ComponentPad*%
%ADD20R,2.000000X1.905000*%
%TD*%
%TA.AperFunction,ComponentPad*%
%ADD21O,2.200000X1.200000*%
%TD*%
%TA.AperFunction,ComponentPad*%
%ADD22O,1.200000X2.200000*%
%TD*%
%TA.AperFunction,ComponentPad*%
%ADD23RoundRect,0.250001X0.949999X-0.949999X0.949999X0.949999X-0.949999X0.949999X-0.949999X-0.949999X0*%
%TD*%
%TA.AperFunction,ComponentPad*%
%ADD24R,1.222000X1.222000*%
%TD*%
%TA.AperFunction,ComponentPad*%
%ADD25C,1.222000*%
%TD*%
G04 APERTURE END LIST*
D10*
%TO.P,C1,1*%
%TO.N,Net-(D1-K)*%
X59290000Y-31200000D03*
D11*
%TO.P,C1,2*%
%TO.N,GND*%
X59290000Y-36200000D03*
%TD*%
D12*
%TO.P,R2,1*%
%TO.N,Net-(J1-Pin_1)*%
X70700000Y-42400000D03*
%TO.P,R2,2*%
%TO.N,GND*%
X63080000Y-42400000D03*
%TD*%
%TO.P,R1,1*%
%TO.N,Net-(D5-K)*%
X49100000Y-23600000D03*
%TO.P,R1,2*%
%TO.N,Net-(D1-K)*%
X41480000Y-23600000D03*
%TD*%
D13*
%TO.P,D5,2,A_2*%
%TO.N,GND*%
X60100000Y-23600000D03*
D14*
%TO.P,D5,1,K_1*%
%TO.N,Net-(D5-K)*%
X52480000Y-23600000D03*
%TD*%
D15*
%TO.P,D3,2,A_2*%
%TO.N,Net-(D3-A)*%
X34860000Y-36600000D03*
D16*
%TO.P,D3,1,K_1*%
%TO.N,Net-(D1-K)*%
X50100000Y-36600000D03*
%TD*%
D17*
%TO.P,C2,2*%
%TO.N,GND*%
X77690000Y-42432323D03*
D18*
%TO.P,C2,1*%
%TO.N,Net-(J1-Pin_1)*%
X77690000Y-37432323D03*
%TD*%
D16*
%TO.P,D1,1,K_1*%
%TO.N,Net-(D1-K)*%
X50110000Y-30200000D03*
D15*
%TO.P,D1,2,A_2*%
%TO.N,Net-(D1-A)*%
X34870000Y-30200000D03*
%TD*%
D16*
%TO.P,D2,1,K_1*%
%TO.N,Net-(D1-A)*%
X37310000Y-23600000D03*
D15*
%TO.P,D2,2,A_2*%
%TO.N,GND*%
X22070000Y-23600000D03*
%TD*%
D19*
%TO.P,Q3,3,S_3*%
%TO.N,Net-(J1-Pin_1)*%
X68290000Y-37480000D03*
%TO.P,Q3,2,D_2*%
%TO.N,Net-(D1-K)*%
X68290000Y-34940000D03*
D20*
%TO.P,Q3,1,G_1*%
%TO.N,Net-(Q3-G)*%
X68290000Y-32400000D03*
%TD*%
D21*
%TO.P,J2,T*%
%TO.N,Net-(D3-A)*%
X29280000Y-38400000D03*
D22*
%TO.P,J2,S*%
%TO.N,unconnected-(J2-PadS)*%
X24280000Y-33400000D03*
D21*
%TO.P,J2,R*%
%TO.N,Net-(D1-A)*%
X29280000Y-28400000D03*
%TD*%
D11*
%TO.P,J1,2,Pin_2_2*%
%TO.N,GND*%
X78132500Y-24960000D03*
D23*
%TO.P,J1,1,Pin_1_1*%
%TO.N,Net-(J1-Pin_1)*%
X78132500Y-30040000D03*
%TD*%
D15*
%TO.P,D4,2,A_2*%
%TO.N,GND*%
X22470000Y-43000000D03*
D16*
%TO.P,D4,1,K_1*%
%TO.N,Net-(D3-A)*%
X37710000Y-43000000D03*
%TD*%
D24*
%TO.P,RV1,1,1_1*%
%TO.N,Net-(D5-K)*%
X65605500Y-24830000D03*
D25*
%TO.P,RV1,2,2_2*%
%TO.N,Net-(Q3-G)*%
X68145500Y-22290000D03*
%TO.P,RV1,3,3_3*%
%TO.N,GND*%
X70685500Y-24830000D03*
%TD*%
%TA.AperFunction,Conductor*%
%TO.N,GND*%
G36*
X84332539Y-20720185D02*
G01*
X84378294Y-20772989D01*
X84389500Y-20824500D01*
X84389500Y-45775500D01*
X84369815Y-45842539D01*
X84317011Y-45888294D01*
X84265500Y-45899500D01*
X20404500Y-45899500D01*
X20337461Y-45879815D01*
X20291706Y-45827011D01*
X20280500Y-45775500D01*
X20280500Y-43825033D01*
X20300185Y-43757994D01*
X20352989Y-43712239D01*
X20422147Y-43702295D01*
X20485703Y-43731320D01*
X20519061Y-43777581D01*
X20582520Y-43930787D01*
X20582527Y-43930802D01*
X20720163Y-44169196D01*
X20818758Y-44297686D01*
X21754152Y-43362292D01*
X21761049Y-43378942D01*
X21848599Y-43509970D01*
X21960030Y-43621401D01*
X22091058Y-43708951D01*
X22107706Y-43715847D01*
X21172312Y-44651240D01*
X21300804Y-44749836D01*
X21539197Y-44887472D01*
X21539212Y-44887479D01*
X21793528Y-44992819D01*
X22059434Y-45064069D01*
X22332358Y-45100000D01*
X22607642Y-45100000D01*
X22880565Y-45064069D01*
X23146471Y-44992819D01*
X23400787Y-44887479D01*
X23400802Y-44887472D01*
X23639194Y-44749836D01*
X23639211Y-44749825D01*
X23767686Y-44651241D01*
X23767686Y-44651239D01*
X22832293Y-43715847D01*
X22848942Y-43708951D01*
X22979970Y-43621401D01*
X23091401Y-43509970D01*
X23178951Y-43378942D01*
X23185846Y-43362293D01*
X24121239Y-44297686D01*
X24121241Y-44297686D01*
X24219825Y-44169211D01*
X24219836Y-44169194D01*
X24357472Y-43930802D01*
X24357479Y-43930787D01*
X24462819Y-43676471D01*
X24534069Y-43410565D01*
X24570000Y-43137641D01*
X24570000Y-42862358D01*
X24534069Y-42589434D01*
X24462819Y-42323528D01*
X24357479Y-42069212D01*
X24357472Y-42069197D01*
X24219836Y-41830804D01*
X24121240Y-41702312D01*
X23185846Y-42637705D01*
X23178951Y-42621058D01*
X23091401Y-42490030D01*
X22979970Y-42378599D01*
X22848942Y-42291049D01*
X22832293Y-42284152D01*
X23516461Y-41599983D01*
X35609500Y-41599983D01*
X35609500Y-44400001D01*
X35609501Y-44400018D01*
X35620000Y-44502796D01*
X35620001Y-44502799D01*
X35675185Y-44669331D01*
X35675186Y-44669334D01*
X35767288Y-44818656D01*
X35891344Y-44942712D01*
X36040666Y-45034814D01*
X36207203Y-45089999D01*
X36309991Y-45100500D01*
X39110008Y-45100499D01*
X39212797Y-45089999D01*
X39379334Y-45034814D01*
X39528656Y-44942712D01*
X39652712Y-44818656D01*
X39744814Y-44669334D01*
X39799999Y-44502797D01*
X39810500Y-44400009D01*
X39810499Y-43000000D01*
X39810499Y-42297682D01*
X61780000Y-42297682D01*
X61780000Y-42502317D01*
X61812009Y-42704417D01*
X61875244Y-42899031D01*
X61968141Y-43081350D01*
X61968147Y-43081359D01*
X62000523Y-43125921D01*
X62000524Y-43125922D01*
X62680000Y-42446446D01*
X62680000Y-42452661D01*
X62707259Y-42554394D01*
X62759920Y-42645606D01*
X62834394Y-42720080D01*
X62925606Y-42772741D01*
X63027339Y-42800000D01*
X63033553Y-42800000D01*
X62354076Y-43479474D01*
X62398650Y-43511859D01*
X62580968Y-43604755D01*
X62775582Y-43667990D01*
X62977683Y-43700000D01*
X63182317Y-43700000D01*
X63384417Y-43667990D01*
X63579031Y-43604755D01*
X63761349Y-43511859D01*
X63805921Y-43479474D01*
X63126447Y-42800000D01*
X63132661Y-42800000D01*
X63234394Y-42772741D01*
X63325606Y-42720080D01*
X63400080Y-42645606D01*
X63452741Y-42554394D01*
X63480000Y-42452661D01*
X63480000Y-42446447D01*
X64159474Y-43125921D01*
X64191859Y-43081349D01*
X64284755Y-42899031D01*
X64347990Y-42704417D01*
X64380000Y-42502317D01*
X64380000Y-42297682D01*
X64379995Y-42297648D01*
X69399500Y-42297648D01*
X69399500Y-42502351D01*
X69431522Y-42704534D01*
X69494781Y-42899223D01*
X69546131Y-43000001D01*
X69587585Y-43081359D01*
X69587715Y-43081613D01*
X69708028Y-43247213D01*
X69852786Y-43391971D01*
X69973226Y-43479474D01*
X70018390Y-43512287D01*
X70134607Y-43571503D01*
X70200776Y-43605218D01*
X70200778Y-43605218D01*
X70200781Y-43605220D01*
X70305137Y-43639127D01*
X70395465Y-43668477D01*
X70445937Y-43676471D01*
X70597648Y-43700500D01*
X70597649Y-43700500D01*
X70802351Y-43700500D01*
X70802352Y-43700500D01*
X71004534Y-43668477D01*
X71199219Y-43605220D01*
X71381610Y-43512287D01*
X71491821Y-43432215D01*
X71547213Y-43391971D01*
X71547215Y-43391968D01*
X71547219Y-43391966D01*
X71691966Y-43247219D01*
X71691968Y-43247215D01*
X71691971Y-43247213D01*
X71771578Y-43137641D01*
X71812287Y-43081610D01*
X71905220Y-42899219D01*
X71968477Y-42704534D01*
X72000500Y-42502352D01*
X72000500Y-42314270D01*
X76190000Y-42314270D01*
X76190000Y-42550375D01*
X76226934Y-42783570D01*
X76299897Y-43008125D01*
X76407087Y-43218497D01*
X76467338Y-43301427D01*
X76467340Y-43301428D01*
X77207037Y-42561731D01*
X77224075Y-42625316D01*
X77289901Y-42739330D01*
X77382993Y-42832422D01*
X77497007Y-42898248D01*
X77560590Y-42915285D01*
X76820893Y-43654981D01*
X76903828Y-43715237D01*
X77114197Y-43822425D01*
X77338752Y-43895388D01*
X77338751Y-43895388D01*
X77571948Y-43932323D01*
X77808052Y-43932323D01*
X78041247Y-43895388D01*
X78265802Y-43822425D01*
X78476163Y-43715241D01*
X78476169Y-43715237D01*
X78559104Y-43654981D01*
X78559105Y-43654981D01*
X77819408Y-42915285D01*
X77882993Y-42898248D01*
X77997007Y-42832422D01*
X78090099Y-42739330D01*
X78155925Y-42625316D01*
X78172962Y-42561731D01*
X78912658Y-43301428D01*
X78912658Y-43301427D01*
X78972914Y-43218492D01*
X78972918Y-43218486D01*
X79080102Y-43008125D01*
X79153065Y-42783570D01*
X79190000Y-42550375D01*
X79190000Y-42314270D01*
X79153065Y-42081075D01*
X79080102Y-41856520D01*
X78972914Y-41646151D01*
X78912658Y-41563217D01*
X78912658Y-41563216D01*
X78172962Y-42302913D01*
X78155925Y-42239330D01*
X78090099Y-42125316D01*
X77997007Y-42032224D01*
X77882993Y-41966398D01*
X77819409Y-41949360D01*
X78559105Y-41209663D01*
X78559104Y-41209661D01*
X78476174Y-41149410D01*
X78265802Y-41042220D01*
X78041247Y-40969257D01*
X78041248Y-40969257D01*
X77808052Y-40932323D01*
X77571948Y-40932323D01*
X77338752Y-40969257D01*
X77114197Y-41042220D01*
X76903830Y-41149407D01*
X76820894Y-41209663D01*
X77560591Y-41949360D01*
X77497007Y-41966398D01*
X77382993Y-42032224D01*
X77289901Y-42125316D01*
X77224075Y-42239330D01*
X77207037Y-42302914D01*
X76467340Y-41563217D01*
X76407084Y-41646153D01*
X76299897Y-41856520D01*
X76226934Y-42081075D01*
X76190000Y-42314270D01*
X72000500Y-42314270D01*
X72000500Y-42297648D01*
X71981069Y-42174966D01*
X71968477Y-42095465D01*
X71926540Y-41966398D01*
X71905220Y-41900781D01*
X71905218Y-41900778D01*
X71905218Y-41900776D01*
X71812419Y-41718650D01*
X71812287Y-41718390D01*
X71780092Y-41674077D01*
X71691971Y-41552786D01*
X71547217Y-41408032D01*
X71547212Y-41408028D01*
X71477331Y-41357256D01*
X71477308Y-41357241D01*
X71381609Y-41287712D01*
X71199223Y-41194781D01*
X71004534Y-41131522D01*
X70829995Y-41103878D01*
X70802352Y-41099500D01*
X70597648Y-41099500D01*
X70573329Y-41103351D01*
X70395465Y-41131522D01*
X70200776Y-41194781D01*
X70018386Y-41287715D01*
X69852786Y-41408028D01*
X69708028Y-41552786D01*
X69587715Y-41718386D01*
X69494781Y-41900776D01*
X69431522Y-42095465D01*
X69399500Y-42297648D01*
X64379995Y-42297648D01*
X64347990Y-42095582D01*
X64284755Y-41900968D01*
X64191859Y-41718650D01*
X64159474Y-41674077D01*
X64159474Y-41674076D01*
X63480000Y-42353551D01*
X63480000Y-42347339D01*
X63452741Y-42245606D01*
X63400080Y-42154394D01*
X63325606Y-42079920D01*
X63234394Y-42027259D01*
X63132661Y-42000000D01*
X63126446Y-42000000D01*
X63805922Y-41320524D01*
X63805921Y-41320523D01*
X63761359Y-41288147D01*
X63761350Y-41288141D01*
X63579031Y-41195244D01*
X63384417Y-41132009D01*
X63182317Y-41100000D01*
X62977683Y-41100000D01*
X62775582Y-41132009D01*
X62580968Y-41195244D01*
X62398644Y-41288143D01*
X62354077Y-41320523D01*
X62354077Y-41320524D01*
X63033554Y-42000000D01*
X63027339Y-42000000D01*
X62925606Y-42027259D01*
X62834394Y-42079920D01*
X62759920Y-42154394D01*
X62707259Y-42245606D01*
X62680000Y-42347339D01*
X62680000Y-42353553D01*
X62000524Y-41674077D01*
X62000523Y-41674077D01*
X61968143Y-41718644D01*
X61875244Y-41900968D01*
X61812009Y-42095582D01*
X61780000Y-42297682D01*
X39810499Y-42297682D01*
X39810499Y-42292816D01*
X39810499Y-41599998D01*
X39810498Y-41599981D01*
X39799999Y-41497203D01*
X39799998Y-41497200D01*
X39770038Y-41406787D01*
X39744814Y-41330666D01*
X39652712Y-41181344D01*
X39528656Y-41057288D01*
X39435888Y-41000069D01*
X39379336Y-40965187D01*
X39379331Y-40965185D01*
X39377862Y-40964698D01*
X39212797Y-40910001D01*
X39212795Y-40910000D01*
X39110010Y-40899500D01*
X36309998Y-40899500D01*
X36309981Y-40899501D01*
X36207203Y-40910000D01*
X36207200Y-40910001D01*
X36040668Y-40965185D01*
X36040663Y-40965187D01*
X35891342Y-41057289D01*
X35767289Y-41181342D01*
X35675187Y-41330663D01*
X35675186Y-41330666D01*
X35620001Y-41497203D01*
X35620001Y-41497204D01*
X35620000Y-41497204D01*
X35609500Y-41599983D01*
X23516461Y-41599983D01*
X23767686Y-41348758D01*
X23639196Y-41250163D01*
X23400802Y-41112527D01*
X23400787Y-41112520D01*
X23146471Y-41007180D01*
X22880565Y-40935930D01*
X22607642Y-40900000D01*
X22332358Y-40900000D01*
X22059434Y-40935930D01*
X21793528Y-41007180D01*
X21539212Y-41112520D01*
X21539197Y-41112527D01*
X21300799Y-41250166D01*
X21172312Y-41348757D01*
X21172312Y-41348758D01*
X22107706Y-42284152D01*
X22091058Y-42291049D01*
X21960030Y-42378599D01*
X21848599Y-42490030D01*
X21761049Y-42621058D01*
X21754152Y-42637706D01*
X20818758Y-41702312D01*
X20818757Y-41702312D01*
X20720166Y-41830799D01*
X20582527Y-42069197D01*
X20582523Y-42069207D01*
X20519061Y-42222419D01*
X20475220Y-42276822D01*
X20408926Y-42298887D01*
X20341227Y-42281608D01*
X20293616Y-42230471D01*
X20280500Y-42174966D01*
X20280500Y-38316228D01*
X20929500Y-38316228D01*
X20929500Y-38483771D01*
X20962182Y-38648074D01*
X20962184Y-38648082D01*
X21026295Y-38802860D01*
X21119373Y-38942162D01*
X21237837Y-39060626D01*
X21330494Y-39122537D01*
X21377137Y-39153703D01*
X21531918Y-39217816D01*
X21696228Y-39250499D01*
X21696232Y-39250500D01*
X21696233Y-39250500D01*
X21863768Y-39250500D01*
X21863769Y-39250499D01*
X22028082Y-39217816D01*
X22182863Y-39153703D01*
X22322162Y-39060626D01*
X22440626Y-38942162D01*
X22533703Y-38802863D01*
X22597816Y-38648082D01*
X22630500Y-38483767D01*
X22630500Y-38316233D01*
X22630499Y-38316228D01*
X23429500Y-38316228D01*
X23429500Y-38483771D01*
X23462182Y-38648074D01*
X23462184Y-38648082D01*
X23526295Y-38802860D01*
X23619373Y-38942162D01*
X23737837Y-39060626D01*
X23830494Y-39122537D01*
X23877137Y-39153703D01*
X24031918Y-39217816D01*
X24196228Y-39250499D01*
X24196232Y-39250500D01*
X24196233Y-39250500D01*
X24363768Y-39250500D01*
X24363769Y-39250499D01*
X24528082Y-39217816D01*
X24682863Y-39153703D01*
X24822162Y-39060626D01*
X24940626Y-38942162D01*
X25033703Y-38802863D01*
X25097816Y-38648082D01*
X25130500Y-38483767D01*
X25130500Y-38316233D01*
X25129934Y-38313389D01*
X27679500Y-38313389D01*
X27679500Y-38486610D01*
X27702972Y-38634812D01*
X27706598Y-38657701D01*
X27753764Y-38802863D01*
X27760128Y-38822447D01*
X27798227Y-38897221D01*
X27838768Y-38976788D01*
X27940586Y-39116928D01*
X28063072Y-39239414D01*
X28203212Y-39341232D01*
X28357555Y-39419873D01*
X28522299Y-39473402D01*
X28693389Y-39500500D01*
X28693390Y-39500500D01*
X29866610Y-39500500D01*
X29866611Y-39500500D01*
X30037701Y-39473402D01*
X30202445Y-39419873D01*
X30356788Y-39341232D01*
X30496928Y-39239414D01*
X30619414Y-39116928D01*
X30721232Y-38976788D01*
X30799873Y-38822445D01*
X30853402Y-38657701D01*
X30880500Y-38486611D01*
X30880500Y-38313389D01*
X30853402Y-38142299D01*
X30799873Y-37977555D01*
X30721232Y-37823212D01*
X30619414Y-37683072D01*
X30496928Y-37560586D01*
X30356788Y-37458768D01*
X30202445Y-37380127D01*
X30037701Y-37326598D01*
X30037699Y-37326597D01*
X30037698Y-37326597D01*
X29906271Y-37305781D01*
X29866611Y-37299500D01*
X28693389Y-37299500D01*
X28653728Y-37305781D01*
X28522302Y-37326597D01*
X28357552Y-37380128D01*
X28203211Y-37458768D01*
X28123256Y-37516859D01*
X28063072Y-37560586D01*
X28063070Y-37560588D01*
X28063069Y-37560588D01*
X27940588Y-37683069D01*
X27940588Y-37683070D01*
X27940586Y-37683072D01*
X27907981Y-37727949D01*
X27838768Y-37823211D01*
X27760128Y-37977552D01*
X27706597Y-38142302D01*
X27679500Y-38313389D01*
X25129934Y-38313389D01*
X25097816Y-38151918D01*
X25048227Y-38032201D01*
X25033704Y-37997139D01*
X25027549Y-37987928D01*
X24968798Y-37900000D01*
X24940626Y-37857837D01*
X24822162Y-37739373D01*
X24682860Y-37646295D01*
X24528082Y-37582184D01*
X24528074Y-37582182D01*
X24363771Y-37549500D01*
X24363767Y-37549500D01*
X24196233Y-37549500D01*
X24196228Y-37549500D01*
X24031925Y-37582182D01*
X24031917Y-37582184D01*
X23877139Y-37646295D01*
X23737837Y-37739373D01*
X23619373Y-37857837D01*
X23526295Y-37997139D01*
X23462184Y-38151917D01*
X23462182Y-38151925D01*
X23429500Y-38316228D01*
X22630499Y-38316228D01*
X22597816Y-38151918D01*
X22548227Y-38032201D01*
X22533704Y-37997139D01*
X22527549Y-37987928D01*
X22468798Y-37900000D01*
X22440626Y-37857837D01*
X22322162Y-37739373D01*
X22182860Y-37646295D01*
X22028082Y-37582184D01*
X22028074Y-37582182D01*
X21863771Y-37549500D01*
X21863767Y-37549500D01*
X21696233Y-37549500D01*
X21696228Y-37549500D01*
X21531925Y-37582182D01*
X21531917Y-37582184D01*
X21377139Y-37646295D01*
X21237837Y-37739373D01*
X21119373Y-37857837D01*
X21026295Y-37997139D01*
X20962184Y-38151917D01*
X20962182Y-38151925D01*
X20929500Y-38316228D01*
X20280500Y-38316228D01*
X20280500Y-36462332D01*
X32759500Y-36462332D01*
X32759500Y-36737667D01*
X32759501Y-36737684D01*
X32795438Y-37010655D01*
X32795439Y-37010660D01*
X32795440Y-37010666D01*
X32795441Y-37010668D01*
X32866704Y-37276630D01*
X32972075Y-37531017D01*
X32972080Y-37531028D01*
X33038632Y-37646297D01*
X33109751Y-37769479D01*
X33109753Y-37769482D01*
X33109754Y-37769483D01*
X33277370Y-37987926D01*
X33277376Y-37987933D01*
X33472066Y-38182623D01*
X33472073Y-38182629D01*
X33548845Y-38241538D01*
X33690521Y-38350249D01*
X33822709Y-38426568D01*
X33928971Y-38487919D01*
X33928976Y-38487921D01*
X33928979Y-38487923D01*
X34183368Y-38593295D01*
X34449334Y-38664560D01*
X34722326Y-38700500D01*
X34722333Y-38700500D01*
X34997667Y-38700500D01*
X34997674Y-38700500D01*
X35270666Y-38664560D01*
X35536632Y-38593295D01*
X35791021Y-38487923D01*
X36029479Y-38350249D01*
X36247928Y-38182628D01*
X36442628Y-37987928D01*
X36610249Y-37769479D01*
X36747923Y-37531021D01*
X36853295Y-37276632D01*
X36924560Y-37010666D01*
X36960500Y-36737674D01*
X36960500Y-36462326D01*
X36924560Y-36189334D01*
X36853295Y-35923368D01*
X36747923Y-35668979D01*
X36747921Y-35668976D01*
X36747919Y-35668971D01*
X36649068Y-35497758D01*
X36610249Y-35430521D01*
X36494942Y-35280249D01*
X36488858Y-35272320D01*
X36442629Y-35212073D01*
X36442623Y-35212066D01*
X36430540Y-35199983D01*
X47999500Y-35199983D01*
X47999500Y-38000001D01*
X47999501Y-38000018D01*
X48010000Y-38102796D01*
X48010001Y-38102799D01*
X48052922Y-38232324D01*
X48065186Y-38269334D01*
X48157288Y-38418656D01*
X48281344Y-38542712D01*
X48430666Y-38634814D01*
X48597203Y-38689999D01*
X48699991Y-38700500D01*
X51500008Y-38700499D01*
X51602797Y-38689999D01*
X51769334Y-38634814D01*
X51918656Y-38542712D01*
X52042712Y-38418656D01*
X52134814Y-38269334D01*
X52189999Y-38102797D01*
X52200500Y-38000009D01*
X52200499Y-36088575D01*
X57590000Y-36088575D01*
X57590000Y-36311424D01*
X57619085Y-36532354D01*
X57619088Y-36532367D01*
X57676763Y-36747618D01*
X57762045Y-36953502D01*
X57762054Y-36953520D01*
X57873464Y-37146491D01*
X57873473Y-37146504D01*
X57924040Y-37212403D01*
X57924043Y-37212403D01*
X58725387Y-36411059D01*
X58730889Y-36431591D01*
X58809881Y-36568408D01*
X58921592Y-36680119D01*
X59058409Y-36759111D01*
X59078940Y-36764612D01*
X58277595Y-37565955D01*
X58277595Y-37565956D01*
X58343507Y-37616533D01*
X58536485Y-37727949D01*
X58536497Y-37727954D01*
X58742381Y-37813236D01*
X58957632Y-37870911D01*
X58957645Y-37870914D01*
X59178575Y-37900000D01*
X59401425Y-37900000D01*
X59622354Y-37870914D01*
X59622367Y-37870911D01*
X59837618Y-37813236D01*
X60043502Y-37727954D01*
X60043514Y-37727949D01*
X60236498Y-37616530D01*
X60302403Y-37565957D01*
X60302404Y-37565956D01*
X59501059Y-36764612D01*
X59521591Y-36759111D01*
X59658408Y-36680119D01*
X59770119Y-36568408D01*
X59849111Y-36431591D01*
X59854612Y-36411059D01*
X60655956Y-37212404D01*
X60655957Y-37212403D01*
X60706530Y-37146498D01*
X60817949Y-36953514D01*
X60817954Y-36953502D01*
X60903236Y-36747618D01*
X60960911Y-36532367D01*
X60960914Y-36532354D01*
X60990000Y-36311424D01*
X60990000Y-36088575D01*
X60960914Y-35867645D01*
X60960911Y-35867632D01*
X60903236Y-35652381D01*
X60817954Y-35446497D01*
X60817949Y-35446485D01*
X60706533Y-35253507D01*
X60655956Y-35187595D01*
X60655955Y-35187595D01*
X59854612Y-35988939D01*
X59849111Y-35968409D01*
X59770119Y-35831592D01*
X59658408Y-35719881D01*
X59521591Y-35640889D01*
X59501058Y-35635387D01*
X60302403Y-34834043D01*
X60302403Y-34834040D01*
X60236504Y-34783473D01*
X60236491Y-34783464D01*
X60043520Y-34672054D01*
X60043502Y-34672045D01*
X59837618Y-34586763D01*
X59622367Y-34529088D01*
X59622354Y-34529085D01*
X59401425Y-34500000D01*
X59178575Y-34500000D01*
X58957645Y-34529085D01*
X58957632Y-34529088D01*
X58742381Y-34586763D01*
X58536497Y-34672045D01*
X58536479Y-34672054D01*
X58343511Y-34783462D01*
X58277595Y-34834042D01*
X59078941Y-35635387D01*
X59058409Y-35640889D01*
X58921592Y-35719881D01*
X58809881Y-35831592D01*
X58730889Y-35968409D01*
X58725387Y-35988940D01*
X57924042Y-35187595D01*
X57873462Y-35253511D01*
X57762054Y-35446479D01*
X57762045Y-35446497D01*
X57676763Y-35652381D01*
X57619088Y-35867632D01*
X57619085Y-35867645D01*
X57590000Y-36088575D01*
X52200499Y-36088575D01*
X52200499Y-35199992D01*
X52189999Y-35097203D01*
X52134814Y-34930666D01*
X52042712Y-34781344D01*
X51918656Y-34657288D01*
X51825376Y-34599753D01*
X51769336Y-34565187D01*
X51769331Y-34565185D01*
X51767862Y-34564698D01*
X51602797Y-34510001D01*
X51602795Y-34510000D01*
X51500010Y-34499500D01*
X48699998Y-34499500D01*
X48699981Y-34499501D01*
X48597203Y-34510000D01*
X48597200Y-34510001D01*
X48430668Y-34565185D01*
X48430663Y-34565187D01*
X48281342Y-34657289D01*
X48157289Y-34781342D01*
X48065187Y-34930663D01*
X48065185Y-34930668D01*
X48044482Y-34993147D01*
X48010001Y-35097203D01*
X48010001Y-35097204D01*
X48010000Y-35097204D01*
X47999500Y-35199983D01*
X36430540Y-35199983D01*
X36247933Y-35017376D01*
X36247926Y-35017370D01*
X36029483Y-34849754D01*
X36029482Y-34849753D01*
X36029479Y-34849751D01*
X35934407Y-34794861D01*
X35791028Y-34712080D01*
X35791017Y-34712075D01*
X35536630Y-34606704D01*
X35381676Y-34565185D01*
X35270666Y-34535440D01*
X35270660Y-34535439D01*
X35270655Y-34535438D01*
X34997684Y-34499501D01*
X34997679Y-34499500D01*
X34997674Y-34499500D01*
X34722326Y-34499500D01*
X34722320Y-34499500D01*
X34722315Y-34499501D01*
X34449344Y-34535438D01*
X34449337Y-34535439D01*
X34449334Y-34535440D01*
X34393125Y-34550500D01*
X34183369Y-34606704D01*
X33928982Y-34712075D01*
X33928971Y-34712080D01*
X33690516Y-34849754D01*
X33472073Y-35017370D01*
X33472066Y-35017376D01*
X33277376Y-35212066D01*
X33277370Y-35212073D01*
X33109754Y-35430516D01*
X32972080Y-35668971D01*
X32972075Y-35668982D01*
X32866704Y-35923369D01*
X32795441Y-36189331D01*
X32795438Y-36189344D01*
X32759501Y-36462315D01*
X32759500Y-36462332D01*
X20280500Y-36462332D01*
X20280500Y-36224500D01*
X20300185Y-36157461D01*
X20352989Y-36111706D01*
X20404500Y-36100500D01*
X20868691Y-36100500D01*
X20868692Y-36100499D01*
X21042665Y-36065895D01*
X21206546Y-35998013D01*
X21354035Y-35899464D01*
X21479464Y-35774035D01*
X21578013Y-35626546D01*
X21645895Y-35462665D01*
X21680500Y-35288690D01*
X21680500Y-35199999D01*
X21680500Y-35134107D01*
X21680500Y-32813389D01*
X23179500Y-32813389D01*
X23179500Y-33986610D01*
X23205964Y-34153703D01*
X23206598Y-34157701D01*
X23260127Y-34322445D01*
X23338768Y-34476788D01*
X23440586Y-34616928D01*
X23563072Y-34739414D01*
X23703212Y-34841232D01*
X23857555Y-34919873D01*
X24022299Y-34973402D01*
X24193389Y-35000500D01*
X24193390Y-35000500D01*
X24366610Y-35000500D01*
X24366611Y-35000500D01*
X24537701Y-34973402D01*
X24702445Y-34919873D01*
X24856788Y-34841232D01*
X24996928Y-34739414D01*
X25119414Y-34616928D01*
X25221232Y-34476788D01*
X25299873Y-34322445D01*
X25353402Y-34157701D01*
X25380500Y-33986611D01*
X25380500Y-33316228D01*
X28429500Y-33316228D01*
X28429500Y-33483771D01*
X28462182Y-33648074D01*
X28462184Y-33648082D01*
X28526295Y-33802860D01*
X28619373Y-33942162D01*
X28737837Y-34060626D01*
X28830494Y-34122537D01*
X28877137Y-34153703D01*
X29031918Y-34217816D01*
X29196228Y-34250499D01*
X29196232Y-34250500D01*
X29196233Y-34250500D01*
X29363768Y-34250500D01*
X29363769Y-34250499D01*
X29528082Y-34217816D01*
X29682863Y-34153703D01*
X29822162Y-34060626D01*
X29940626Y-33942162D01*
X30033703Y-33802863D01*
X30097816Y-33648082D01*
X30130500Y-33483767D01*
X30130500Y-33316233D01*
X30097816Y-33151918D01*
X30033703Y-32997137D01*
X29969132Y-32900500D01*
X29940626Y-32857837D01*
X29822162Y-32739373D01*
X29682860Y-32646295D01*
X29528082Y-32582184D01*
X29528074Y-32582182D01*
X29363771Y-32549500D01*
X29363767Y-32549500D01*
X29196233Y-32549500D01*
X29196228Y-32549500D01*
X29031925Y-32582182D01*
X29031917Y-32582184D01*
X28877139Y-32646295D01*
X28737837Y-32739373D01*
X28619373Y-32857837D01*
X28526295Y-32997139D01*
X28462184Y-33151917D01*
X28462182Y-33151925D01*
X28429500Y-33316228D01*
X25380500Y-33316228D01*
X25380500Y-32813389D01*
X25353402Y-32642299D01*
X25299873Y-32477555D01*
X25221232Y-32323212D01*
X25119414Y-32183072D01*
X24996928Y-32060586D01*
X24856788Y-31958768D01*
X24702445Y-31880127D01*
X24537701Y-31826598D01*
X24537699Y-31826597D01*
X24537698Y-31826597D01*
X24406271Y-31805781D01*
X24366611Y-31799500D01*
X24193389Y-31799500D01*
X24153728Y-31805781D01*
X24022302Y-31826597D01*
X23857552Y-31880128D01*
X23703211Y-31958768D01*
X23623256Y-32016859D01*
X23563072Y-32060586D01*
X23563070Y-32060588D01*
X23563069Y-32060588D01*
X23440588Y-32183069D01*
X23440588Y-32183070D01*
X23440586Y-32183072D01*
X23402995Y-32234812D01*
X23338768Y-32323211D01*
X23260128Y-32477552D01*
X23206597Y-32642302D01*
X23179500Y-32813389D01*
X21680500Y-32813389D01*
X21680500Y-31534108D01*
X21680500Y-31511308D01*
X21680500Y-31511305D01*
X21680499Y-31511303D01*
X21645894Y-31337333D01*
X21578012Y-31173453D01*
X21578010Y-31173450D01*
X21578008Y-31173446D01*
X21479464Y-31025965D01*
X21479461Y-31025961D01*
X21354038Y-30900538D01*
X21354034Y-30900535D01*
X21206553Y-30801991D01*
X21206543Y-30801986D01*
X21042667Y-30734106D01*
X21042659Y-30734104D01*
X20868695Y-30699500D01*
X20868692Y-30699500D01*
X20845892Y-30699500D01*
X20404500Y-30699500D01*
X20337461Y-30679815D01*
X20291706Y-30627011D01*
X20280500Y-30575500D01*
X20280500Y-30062332D01*
X32769500Y-30062332D01*
X32769500Y-30337667D01*
X32769501Y-30337684D01*
X32805438Y-30610655D01*
X32805439Y-30610660D01*
X32805440Y-30610666D01*
X32841072Y-30743649D01*
X32876704Y-30876630D01*
X32982075Y-31131017D01*
X32982080Y-31131028D01*
X33064861Y-31274407D01*
X33119751Y-31369479D01*
X33119753Y-31369482D01*
X33119754Y-31369483D01*
X33287370Y-31587926D01*
X33287376Y-31587933D01*
X33482066Y-31782623D01*
X33482072Y-31782628D01*
X33700521Y-31950249D01*
X33819007Y-32018657D01*
X33938971Y-32087919D01*
X33938976Y-32087921D01*
X33938979Y-32087923D01*
X34193368Y-32193295D01*
X34459334Y-32264560D01*
X34732326Y-32300500D01*
X34732333Y-32300500D01*
X35007667Y-32300500D01*
X35007674Y-32300500D01*
X35280666Y-32264560D01*
X35546632Y-32193295D01*
X35801021Y-32087923D01*
X36039479Y-31950249D01*
X36257928Y-31782628D01*
X36452628Y-31587928D01*
X36620249Y-31369479D01*
X36757923Y-31131021D01*
X36863295Y-30876632D01*
X36934560Y-30610666D01*
X36970500Y-30337674D01*
X36970500Y-30062326D01*
X36934560Y-29789334D01*
X36863295Y-29523368D01*
X36757923Y-29268979D01*
X36757921Y-29268976D01*
X36757919Y-29268971D01*
X36670137Y-29116930D01*
X36620249Y-29030521D01*
X36460587Y-28822445D01*
X36452629Y-28812073D01*
X36452623Y-28812066D01*
X36440540Y-28799983D01*
X48009500Y-28799983D01*
X48009500Y-31600001D01*
X48009501Y-31600018D01*
X48020000Y-31702796D01*
X48020001Y-31702799D01*
X48075185Y-31869331D01*
X48075186Y-31869334D01*
X48167288Y-32018656D01*
X48291344Y-32142712D01*
X48440666Y-32234814D01*
X48607203Y-32289999D01*
X48709991Y-32300500D01*
X51510008Y-32300499D01*
X51612797Y-32289999D01*
X51779334Y-32234814D01*
X51928656Y-32142712D01*
X52052712Y-32018656D01*
X52144814Y-31869334D01*
X52199999Y-31702797D01*
X52210500Y-31600009D01*
X52210499Y-30199984D01*
X57589500Y-30199984D01*
X57589500Y-32200015D01*
X57600000Y-32302795D01*
X57600001Y-32302796D01*
X57655186Y-32469335D01*
X57655187Y-32469337D01*
X57747286Y-32618651D01*
X57747289Y-32618655D01*
X57871344Y-32742710D01*
X57871348Y-32742713D01*
X58020662Y-32834812D01*
X58020664Y-32834813D01*
X58020666Y-32834814D01*
X58187203Y-32889999D01*
X58289992Y-32900500D01*
X58289997Y-32900500D01*
X60290003Y-32900500D01*
X60290008Y-32900500D01*
X60392797Y-32889999D01*
X60559334Y-32834814D01*
X60708655Y-32742711D01*
X60832711Y-32618655D01*
X60924814Y-32469334D01*
X60979999Y-32302797D01*
X60990500Y-32200008D01*
X60990500Y-31399635D01*
X66789500Y-31399635D01*
X66789500Y-33400370D01*
X66789501Y-33400376D01*
X66795908Y-33459983D01*
X66846202Y-33594828D01*
X66846206Y-33594835D01*
X66932452Y-33710044D01*
X66932455Y-33710047D01*
X67047664Y-33796293D01*
X67047669Y-33796296D01*
X67075539Y-33806690D01*
X67131473Y-33848561D01*
X67155891Y-33914024D01*
X67141040Y-33982298D01*
X67132525Y-33995759D01*
X66999783Y-34178461D01*
X66895950Y-34382244D01*
X66825278Y-34599750D01*
X66825278Y-34599753D01*
X66816165Y-34657289D01*
X66789500Y-34825646D01*
X66789500Y-35054354D01*
X66802132Y-35134107D01*
X66825278Y-35280246D01*
X66825278Y-35280249D01*
X66895950Y-35497755D01*
X66895952Y-35497758D01*
X66999783Y-35701538D01*
X67134214Y-35886566D01*
X67295934Y-36048286D01*
X67345802Y-36084517D01*
X67380438Y-36109682D01*
X67423103Y-36165013D01*
X67429082Y-36234626D01*
X67396476Y-36296421D01*
X67380438Y-36310318D01*
X67295932Y-36371715D01*
X67134216Y-36533431D01*
X67134216Y-36533432D01*
X67134214Y-36533434D01*
X67119597Y-36553553D01*
X66999783Y-36718461D01*
X66895950Y-36922244D01*
X66825278Y-37139750D01*
X66825278Y-37139753D01*
X66789500Y-37365646D01*
X66789500Y-37594353D01*
X66825278Y-37820246D01*
X66825278Y-37820249D01*
X66895950Y-38037755D01*
X66895952Y-38037758D01*
X66999783Y-38241538D01*
X67134214Y-38426566D01*
X67295934Y-38588286D01*
X67480962Y-38722717D01*
X67583642Y-38775035D01*
X67684744Y-38826549D01*
X67902251Y-38897221D01*
X67902252Y-38897221D01*
X67902255Y-38897222D01*
X68128146Y-38933000D01*
X68128147Y-38933000D01*
X68451853Y-38933000D01*
X68451854Y-38933000D01*
X68677745Y-38897222D01*
X68677748Y-38897221D01*
X68677749Y-38897221D01*
X68895255Y-38826549D01*
X68895255Y-38826548D01*
X68895258Y-38826548D01*
X69099038Y-38722717D01*
X69284066Y-38588286D01*
X69445786Y-38426566D01*
X69580217Y-38241538D01*
X69684048Y-38037758D01*
X69738260Y-37870911D01*
X69754721Y-37820249D01*
X69754721Y-37820248D01*
X69754722Y-37820245D01*
X69790500Y-37594354D01*
X69790500Y-37365646D01*
X69754722Y-37139755D01*
X69754721Y-37139751D01*
X69754721Y-37139750D01*
X69684049Y-36922244D01*
X69684048Y-36922242D01*
X69580217Y-36718462D01*
X69578757Y-36716453D01*
X69568290Y-36702045D01*
X69568288Y-36702043D01*
X69552359Y-36680119D01*
X69517621Y-36632306D01*
X76189500Y-36632306D01*
X76189500Y-38232324D01*
X76189501Y-38232341D01*
X76200000Y-38335119D01*
X76200001Y-38335122D01*
X76255185Y-38501654D01*
X76255187Y-38501659D01*
X76280509Y-38542712D01*
X76347288Y-38650979D01*
X76471344Y-38775035D01*
X76620666Y-38867137D01*
X76787203Y-38922322D01*
X76889991Y-38932823D01*
X78490008Y-38932822D01*
X78592797Y-38922322D01*
X78759334Y-38867137D01*
X78908656Y-38775035D01*
X79032712Y-38650979D01*
X79124814Y-38501657D01*
X79179999Y-38335120D01*
X79190500Y-38232332D01*
X79190499Y-36632315D01*
X79179999Y-36529526D01*
X79124814Y-36362989D01*
X79032712Y-36213667D01*
X78908656Y-36089611D01*
X78759334Y-35997509D01*
X78592797Y-35942324D01*
X78592795Y-35942323D01*
X78490010Y-35931823D01*
X76889998Y-35931823D01*
X76889981Y-35931824D01*
X76787203Y-35942323D01*
X76787200Y-35942324D01*
X76620668Y-35997508D01*
X76620663Y-35997510D01*
X76471342Y-36089612D01*
X76347289Y-36213665D01*
X76255187Y-36362986D01*
X76255185Y-36362991D01*
X76227349Y-36446993D01*
X76200001Y-36529526D01*
X76200001Y-36529527D01*
X76200000Y-36529527D01*
X76189500Y-36632306D01*
X69517621Y-36632306D01*
X69445786Y-36533434D01*
X69284066Y-36371714D01*
X69199559Y-36310316D01*
X69156896Y-36254988D01*
X69150917Y-36185375D01*
X69183523Y-36123580D01*
X69199556Y-36109685D01*
X69284066Y-36048286D01*
X69445786Y-35886566D01*
X69580217Y-35701538D01*
X69684048Y-35497758D01*
X69700708Y-35446485D01*
X69754721Y-35280249D01*
X69754721Y-35280248D01*
X69754722Y-35280245D01*
X69790500Y-35054354D01*
X69790500Y-34825646D01*
X69754722Y-34599755D01*
X69754721Y-34599751D01*
X69754721Y-34599750D01*
X69684049Y-34382244D01*
X69616922Y-34250500D01*
X69580217Y-34178462D01*
X69447472Y-33995755D01*
X69423994Y-33929953D01*
X69439819Y-33861899D01*
X69489925Y-33813204D01*
X69504455Y-33806692D01*
X69532331Y-33796296D01*
X69647546Y-33710046D01*
X69733796Y-33594831D01*
X69784091Y-33459983D01*
X69790500Y-33400373D01*
X69790499Y-31399628D01*
X69784091Y-31340017D01*
X69772647Y-31309335D01*
X69733797Y-31205171D01*
X69733793Y-31205164D01*
X69647547Y-31089955D01*
X69647544Y-31089952D01*
X69532335Y-31003706D01*
X69532328Y-31003702D01*
X69397482Y-30953408D01*
X69397483Y-30953408D01*
X69337883Y-30947001D01*
X69337881Y-30947000D01*
X69337873Y-30947000D01*
X69337864Y-30947000D01*
X67242129Y-30947000D01*
X67242123Y-30947001D01*
X67182516Y-30953408D01*
X67047671Y-31003702D01*
X67047664Y-31003706D01*
X66932455Y-31089952D01*
X66932452Y-31089955D01*
X66846206Y-31205164D01*
X66846202Y-31205171D01*
X66795908Y-31340017D01*
X66789501Y-31399616D01*
X66789501Y-31399623D01*
X66789500Y-31399635D01*
X60990500Y-31399635D01*
X60990500Y-30199992D01*
X60979999Y-30097203D01*
X60924814Y-29930666D01*
X60832711Y-29781345D01*
X60708655Y-29657289D01*
X60708651Y-29657286D01*
X60559337Y-29565187D01*
X60559335Y-29565186D01*
X60476065Y-29537593D01*
X60392797Y-29510001D01*
X60392795Y-29510000D01*
X60290015Y-29499500D01*
X60290008Y-29499500D01*
X58289992Y-29499500D01*
X58289984Y-29499500D01*
X58187204Y-29510000D01*
X58187203Y-29510001D01*
X58020664Y-29565186D01*
X58020662Y-29565187D01*
X57871348Y-29657286D01*
X57871344Y-29657289D01*
X57747289Y-29781344D01*
X57747286Y-29781348D01*
X57655187Y-29930662D01*
X57655186Y-29930664D01*
X57600001Y-30097203D01*
X57600000Y-30097204D01*
X57589500Y-30199984D01*
X52210499Y-30199984D01*
X52210499Y-29039984D01*
X76432000Y-29039984D01*
X76432000Y-31040015D01*
X76442500Y-31142795D01*
X76442501Y-31142797D01*
X76463167Y-31205164D01*
X76497686Y-31309335D01*
X76497687Y-31309337D01*
X76589786Y-31458651D01*
X76589789Y-31458655D01*
X76713844Y-31582710D01*
X76713848Y-31582713D01*
X76863162Y-31674812D01*
X76863164Y-31674813D01*
X76863166Y-31674814D01*
X77029703Y-31729999D01*
X77132492Y-31740500D01*
X77132497Y-31740500D01*
X79132503Y-31740500D01*
X79132508Y-31740500D01*
X79235297Y-31729999D01*
X79401834Y-31674814D01*
X79551155Y-31582711D01*
X79675211Y-31458655D01*
X79767314Y-31309334D01*
X79822499Y-31142797D01*
X79833000Y-31040008D01*
X79833000Y-29039992D01*
X79822499Y-28937203D01*
X79767314Y-28770666D01*
X79721999Y-28697200D01*
X79675213Y-28621348D01*
X79675210Y-28621344D01*
X79551155Y-28497289D01*
X79551151Y-28497286D01*
X79401837Y-28405187D01*
X79401835Y-28405186D01*
X79318565Y-28377593D01*
X79235297Y-28350001D01*
X79235295Y-28350000D01*
X79132515Y-28339500D01*
X79132508Y-28339500D01*
X77132492Y-28339500D01*
X77132484Y-28339500D01*
X77029704Y-28350000D01*
X77029703Y-28350001D01*
X76863164Y-28405186D01*
X76863162Y-28405187D01*
X76713848Y-28497286D01*
X76713844Y-28497289D01*
X76589789Y-28621344D01*
X76589786Y-28621348D01*
X76497687Y-28770662D01*
X76497686Y-28770664D01*
X76442501Y-28937203D01*
X76442500Y-28937204D01*
X76432000Y-29039984D01*
X52210499Y-29039984D01*
X52210499Y-28799992D01*
X52199999Y-28697203D01*
X52144814Y-28530666D01*
X52052712Y-28381344D01*
X51928656Y-28257288D01*
X51779334Y-28165186D01*
X51612797Y-28110001D01*
X51612795Y-28110000D01*
X51510010Y-28099500D01*
X48709998Y-28099500D01*
X48709981Y-28099501D01*
X48607203Y-28110000D01*
X48607200Y-28110001D01*
X48440668Y-28165185D01*
X48440663Y-28165187D01*
X48291342Y-28257289D01*
X48167289Y-28381342D01*
X48075187Y-28530663D01*
X48075186Y-28530666D01*
X48020001Y-28697203D01*
X48020001Y-28697204D01*
X48020000Y-28697204D01*
X48009500Y-28799983D01*
X36440540Y-28799983D01*
X36257933Y-28617376D01*
X36257926Y-28617370D01*
X36039483Y-28449754D01*
X36039482Y-28449753D01*
X36039479Y-28449751D01*
X35920995Y-28381344D01*
X35801028Y-28312080D01*
X35801017Y-28312075D01*
X35546630Y-28206704D01*
X35391676Y-28165185D01*
X35280666Y-28135440D01*
X35280660Y-28135439D01*
X35280655Y-28135438D01*
X35007684Y-28099501D01*
X35007679Y-28099500D01*
X35007674Y-28099500D01*
X34732326Y-28099500D01*
X34732320Y-28099500D01*
X34732315Y-28099501D01*
X34459344Y-28135438D01*
X34459337Y-28135439D01*
X34459334Y-28135440D01*
X34433736Y-28142299D01*
X34193369Y-28206704D01*
X33938982Y-28312075D01*
X33938971Y-28312080D01*
X33700516Y-28449754D01*
X33482073Y-28617370D01*
X33482066Y-28617376D01*
X33287376Y-28812066D01*
X33287370Y-28812073D01*
X33119754Y-29030516D01*
X32982080Y-29268971D01*
X32982075Y-29268982D01*
X32876704Y-29523369D01*
X32805441Y-29789331D01*
X32805438Y-29789344D01*
X32769501Y-30062315D01*
X32769500Y-30062332D01*
X20280500Y-30062332D01*
X20280500Y-28316228D01*
X20929500Y-28316228D01*
X20929500Y-28483771D01*
X20962182Y-28648074D01*
X20962184Y-28648082D01*
X21026295Y-28802860D01*
X21119373Y-28942162D01*
X21237837Y-29060626D01*
X21330494Y-29122537D01*
X21377137Y-29153703D01*
X21531918Y-29217816D01*
X21696228Y-29250499D01*
X21696232Y-29250500D01*
X21696233Y-29250500D01*
X21863768Y-29250500D01*
X21863769Y-29250499D01*
X22028082Y-29217816D01*
X22182863Y-29153703D01*
X22322162Y-29060626D01*
X22440626Y-28942162D01*
X22533703Y-28802863D01*
X22597816Y-28648082D01*
X22630500Y-28483767D01*
X22630500Y-28316233D01*
X22630499Y-28316228D01*
X23429500Y-28316228D01*
X23429500Y-28483771D01*
X23462182Y-28648074D01*
X23462184Y-28648082D01*
X23526295Y-28802860D01*
X23619373Y-28942162D01*
X23737837Y-29060626D01*
X23830494Y-29122537D01*
X23877137Y-29153703D01*
X24031918Y-29217816D01*
X24196228Y-29250499D01*
X24196232Y-29250500D01*
X24196233Y-29250500D01*
X24363768Y-29250500D01*
X24363769Y-29250499D01*
X24528082Y-29217816D01*
X24682863Y-29153703D01*
X24822162Y-29060626D01*
X24940626Y-28942162D01*
X25033703Y-28802863D01*
X25097816Y-28648082D01*
X25130500Y-28483767D01*
X25130500Y-28316233D01*
X25129934Y-28313389D01*
X27679500Y-28313389D01*
X27679500Y-28486610D01*
X27700839Y-28621344D01*
X27706598Y-28657701D01*
X27760127Y-28822445D01*
X27838768Y-28976788D01*
X27940586Y-29116928D01*
X28063072Y-29239414D01*
X28203212Y-29341232D01*
X28357555Y-29419873D01*
X28522299Y-29473402D01*
X28693389Y-29500500D01*
X28693390Y-29500500D01*
X29866610Y-29500500D01*
X29866611Y-29500500D01*
X30037701Y-29473402D01*
X30202445Y-29419873D01*
X30356788Y-29341232D01*
X30496928Y-29239414D01*
X30619414Y-29116928D01*
X30721232Y-28976788D01*
X30799873Y-28822445D01*
X30853402Y-28657701D01*
X30880500Y-28486611D01*
X30880500Y-28313389D01*
X30853402Y-28142299D01*
X30799873Y-27977555D01*
X30721232Y-27823212D01*
X30619414Y-27683072D01*
X30496928Y-27560586D01*
X30356788Y-27458768D01*
X30202445Y-27380127D01*
X30037701Y-27326598D01*
X30037699Y-27326597D01*
X30037698Y-27326597D01*
X29906271Y-27305781D01*
X29866611Y-27299500D01*
X28693389Y-27299500D01*
X28653728Y-27305781D01*
X28522302Y-27326597D01*
X28357552Y-27380128D01*
X28203211Y-27458768D01*
X28123256Y-27516859D01*
X28063072Y-27560586D01*
X28063070Y-27560588D01*
X28063069Y-27560588D01*
X27940588Y-27683069D01*
X27940588Y-27683070D01*
X27940586Y-27683072D01*
X27899681Y-27739373D01*
X27838768Y-27823211D01*
X27760128Y-27977552D01*
X27706597Y-28142302D01*
X27679500Y-28313389D01*
X25129934Y-28313389D01*
X25097816Y-28151918D01*
X25033703Y-27997137D01*
X25002537Y-27950494D01*
X24940626Y-27857837D01*
X24822162Y-27739373D01*
X24682860Y-27646295D01*
X24528082Y-27582184D01*
X24528074Y-27582182D01*
X24363771Y-27549500D01*
X24363767Y-27549500D01*
X24196233Y-27549500D01*
X24196228Y-27549500D01*
X24031925Y-27582182D01*
X24031917Y-27582184D01*
X23877139Y-27646295D01*
X23737837Y-27739373D01*
X23619373Y-27857837D01*
X23526295Y-27997139D01*
X23462184Y-28151917D01*
X23462182Y-28151925D01*
X23429500Y-28316228D01*
X22630499Y-28316228D01*
X22597816Y-28151918D01*
X22533703Y-27997137D01*
X22502537Y-27950494D01*
X22440626Y-27857837D01*
X22322162Y-27739373D01*
X22182860Y-27646295D01*
X22028082Y-27582184D01*
X22028074Y-27582182D01*
X21863771Y-27549500D01*
X21863767Y-27549500D01*
X21696233Y-27549500D01*
X21696228Y-27549500D01*
X21531925Y-27582182D01*
X21531917Y-27582184D01*
X21377139Y-27646295D01*
X21237837Y-27739373D01*
X21119373Y-27857837D01*
X21026295Y-27997139D01*
X20962184Y-28151917D01*
X20962182Y-28151925D01*
X20929500Y-28316228D01*
X20280500Y-28316228D01*
X20280500Y-25021018D01*
X20300185Y-24953979D01*
X20352989Y-24908224D01*
X20412611Y-24897284D01*
X20418758Y-24897686D01*
X21354152Y-23962292D01*
X21361049Y-23978942D01*
X21448599Y-24109970D01*
X21560030Y-24221401D01*
X21691058Y-24308951D01*
X21707706Y-24315847D01*
X20772312Y-25251240D01*
X20900804Y-25349836D01*
X21139197Y-25487472D01*
X21139212Y-25487479D01*
X21393528Y-25592819D01*
X21659434Y-25664069D01*
X21932358Y-25700000D01*
X22207642Y-25700000D01*
X22480565Y-25664069D01*
X22746471Y-25592819D01*
X23000787Y-25487479D01*
X23000802Y-25487472D01*
X23239194Y-25349836D01*
X23239211Y-25349825D01*
X23367686Y-25251241D01*
X23367686Y-25251239D01*
X22432293Y-24315847D01*
X22448942Y-24308951D01*
X22579970Y-24221401D01*
X22691401Y-24109970D01*
X22778951Y-23978942D01*
X22785847Y-23962293D01*
X23721239Y-24897686D01*
X23721241Y-24897686D01*
X23819825Y-24769211D01*
X23819836Y-24769194D01*
X23957472Y-24530802D01*
X23957479Y-24530787D01*
X24062819Y-24276471D01*
X24134069Y-24010565D01*
X24170000Y-23737641D01*
X24170000Y-23462358D01*
X24134069Y-23189434D01*
X24062819Y-22923528D01*
X23957479Y-22669212D01*
X23957472Y-22669197D01*
X23819836Y-22430804D01*
X23721240Y-22302312D01*
X22785846Y-23237705D01*
X22778951Y-23221058D01*
X22691401Y-23090030D01*
X22579970Y-22978599D01*
X22448942Y-22891049D01*
X22432293Y-22884152D01*
X23116461Y-22199983D01*
X35209500Y-22199983D01*
X35209500Y-25000001D01*
X35209501Y-25000018D01*
X35220000Y-25102796D01*
X35220001Y-25102799D01*
X35270924Y-25256473D01*
X35275186Y-25269334D01*
X35367288Y-25418656D01*
X35491344Y-25542712D01*
X35640666Y-25634814D01*
X35807203Y-25689999D01*
X35909991Y-25700500D01*
X38710008Y-25700499D01*
X38812797Y-25689999D01*
X38979334Y-25634814D01*
X39128656Y-25542712D01*
X39252712Y-25418656D01*
X39344814Y-25269334D01*
X39399999Y-25102797D01*
X39410500Y-25000009D01*
X39410499Y-23497648D01*
X40179500Y-23497648D01*
X40179500Y-23702351D01*
X40211522Y-23904534D01*
X40274781Y-24099223D01*
X40311420Y-24171129D01*
X40352141Y-24251049D01*
X40367715Y-24281613D01*
X40488028Y-24447213D01*
X40632786Y-24591971D01*
X40787749Y-24704556D01*
X40798390Y-24712287D01*
X40910347Y-24769332D01*
X40980776Y-24805218D01*
X40980778Y-24805218D01*
X40980781Y-24805220D01*
X41057043Y-24829999D01*
X41175465Y-24868477D01*
X41229277Y-24877000D01*
X41377648Y-24900500D01*
X41377649Y-24900500D01*
X41582351Y-24900500D01*
X41582352Y-24900500D01*
X41784534Y-24868477D01*
X41979219Y-24805220D01*
X42161610Y-24712287D01*
X42278129Y-24627632D01*
X42327213Y-24591971D01*
X42327215Y-24591968D01*
X42327219Y-24591966D01*
X42471966Y-24447219D01*
X42471968Y-24447215D01*
X42471971Y-24447213D01*
X42550882Y-24338599D01*
X42592287Y-24281610D01*
X42685220Y-24099219D01*
X42748477Y-23904534D01*
X42780500Y-23702352D01*
X42780500Y-23497648D01*
X47799500Y-23497648D01*
X47799500Y-23702351D01*
X47831522Y-23904534D01*
X47894781Y-24099223D01*
X47931420Y-24171129D01*
X47972141Y-24251049D01*
X47987715Y-24281613D01*
X48108028Y-24447213D01*
X48252786Y-24591971D01*
X48407749Y-24704556D01*
X48418390Y-24712287D01*
X48530347Y-24769332D01*
X48600776Y-24805218D01*
X48600778Y-24805218D01*
X48600781Y-24805220D01*
X48677043Y-24829999D01*
X48795465Y-24868477D01*
X48849277Y-24877000D01*
X48997648Y-24900500D01*
X48997649Y-24900500D01*
X49202351Y-24900500D01*
X49202352Y-24900500D01*
X49404534Y-24868477D01*
X49599219Y-24805220D01*
X49781610Y-24712287D01*
X49898129Y-24627632D01*
X49947213Y-24591971D01*
X49947215Y-24591968D01*
X49947219Y-24591966D01*
X50091966Y-24447219D01*
X50091968Y-24447215D01*
X50091971Y-24447213D01*
X50170882Y-24338599D01*
X50212287Y-24281610D01*
X50305220Y-24099219D01*
X50368477Y-23904534D01*
X50400500Y-23702352D01*
X50400500Y-23497648D01*
X50380937Y-23374131D01*
X50368477Y-23295465D01*
X50305218Y-23100776D01*
X50261047Y-23014087D01*
X50212287Y-22918390D01*
X50178985Y-22872553D01*
X50104272Y-22769718D01*
X50104271Y-22769717D01*
X50091969Y-22752784D01*
X50039167Y-22699982D01*
X50879500Y-22699982D01*
X50879500Y-24500017D01*
X50890000Y-24602796D01*
X50945185Y-24769332D01*
X50945187Y-24769337D01*
X50967319Y-24805218D01*
X51037288Y-24918656D01*
X51161344Y-25042712D01*
X51310665Y-25134814D01*
X51477202Y-25189999D01*
X51579990Y-25200500D01*
X51579995Y-25200500D01*
X53380005Y-25200500D01*
X53380010Y-25200500D01*
X53482798Y-25189999D01*
X53649335Y-25134814D01*
X53798656Y-25042712D01*
X53922712Y-24918656D01*
X54014814Y-24769335D01*
X54069999Y-24602798D01*
X54080500Y-24500010D01*
X54080500Y-23474071D01*
X58500000Y-23474071D01*
X58500000Y-23725928D01*
X58539397Y-23974669D01*
X58617219Y-24214184D01*
X58731557Y-24438583D01*
X58805748Y-24540697D01*
X58805748Y-24540698D01*
X59576212Y-23770233D01*
X59587482Y-23812292D01*
X59659890Y-23937708D01*
X59762292Y-24040110D01*
X59887708Y-24112518D01*
X59929765Y-24123787D01*
X59159300Y-24894250D01*
X59261416Y-24968442D01*
X59485815Y-25082780D01*
X59725330Y-25160602D01*
X59974072Y-25200000D01*
X60225928Y-25200000D01*
X60474669Y-25160602D01*
X60714184Y-25082780D01*
X60938575Y-24968446D01*
X60938581Y-24968442D01*
X61040697Y-24894250D01*
X61040698Y-24894250D01*
X60270234Y-24123787D01*
X60312292Y-24112518D01*
X60437708Y-24040110D01*
X60540110Y-23937708D01*
X60612518Y-23812292D01*
X60623787Y-23770235D01*
X61394250Y-24540698D01*
X61394250Y-24540697D01*
X61468442Y-24438581D01*
X61468446Y-24438575D01*
X61582780Y-24214184D01*
X61596768Y-24171135D01*
X64494000Y-24171135D01*
X64494000Y-25488870D01*
X64494001Y-25488876D01*
X64500408Y-25548483D01*
X64550702Y-25683328D01*
X64550706Y-25683335D01*
X64636952Y-25798544D01*
X64636955Y-25798547D01*
X64752164Y-25884793D01*
X64752171Y-25884797D01*
X64887017Y-25935091D01*
X64887016Y-25935091D01*
X64893944Y-25935835D01*
X64946627Y-25941500D01*
X66264372Y-25941499D01*
X66323983Y-25935091D01*
X66458831Y-25884796D01*
X66574046Y-25798546D01*
X66660296Y-25683331D01*
X66710591Y-25548483D01*
X66717000Y-25488873D01*
X66716999Y-24742562D01*
X69574500Y-24742562D01*
X69574500Y-24917437D01*
X69601857Y-25090161D01*
X69601857Y-25090164D01*
X69655894Y-25256473D01*
X69735290Y-25412293D01*
X69735294Y-25412300D01*
X69741333Y-25420611D01*
X69741334Y-25420612D01*
X70328500Y-24833446D01*
X70328500Y-24877000D01*
X70352829Y-24967797D01*
X70399829Y-25049203D01*
X70466297Y-25115671D01*
X70547703Y-25162671D01*
X70638500Y-25187000D01*
X70682053Y-25187000D01*
X70094887Y-25774165D01*
X70103206Y-25780210D01*
X70259026Y-25859605D01*
X70425336Y-25913642D01*
X70598063Y-25941000D01*
X70772937Y-25941000D01*
X70945661Y-25913642D01*
X70945664Y-25913642D01*
X71111973Y-25859605D01*
X71267796Y-25780208D01*
X71276112Y-25774165D01*
X71276112Y-25774164D01*
X70688948Y-25187000D01*
X70732500Y-25187000D01*
X70823297Y-25162671D01*
X70904703Y-25115671D01*
X70971171Y-25049203D01*
X71018171Y-24967797D01*
X71042500Y-24877000D01*
X71042500Y-24833448D01*
X71629664Y-25420612D01*
X71629665Y-25420612D01*
X71635708Y-25412296D01*
X71715105Y-25256473D01*
X71769142Y-25090164D01*
X71769142Y-25090161D01*
X71796500Y-24917437D01*
X71796500Y-24848575D01*
X76432500Y-24848575D01*
X76432500Y-25071424D01*
X76461585Y-25292354D01*
X76461588Y-25292367D01*
X76519263Y-25507618D01*
X76604545Y-25713502D01*
X76604554Y-25713520D01*
X76715964Y-25906491D01*
X76715973Y-25906504D01*
X76766540Y-25972403D01*
X76766543Y-25972403D01*
X77416652Y-25322293D01*
X77423549Y-25338942D01*
X77511099Y-25469970D01*
X77622530Y-25581401D01*
X77753558Y-25668951D01*
X77770205Y-25675846D01*
X77120095Y-26325955D01*
X77120095Y-26325956D01*
X77186007Y-26376533D01*
X77378985Y-26487949D01*
X77378997Y-26487954D01*
X77584881Y-26573236D01*
X77800132Y-26630911D01*
X77800145Y-26630914D01*
X78021075Y-26660000D01*
X78243925Y-26660000D01*
X78464854Y-26630914D01*
X78464867Y-26630911D01*
X78680118Y-26573236D01*
X78886002Y-26487954D01*
X78886014Y-26487949D01*
X79078998Y-26376530D01*
X79144903Y-26325957D01*
X79144904Y-26325956D01*
X78494794Y-25675846D01*
X78511442Y-25668951D01*
X78642470Y-25581401D01*
X78753901Y-25469970D01*
X78841451Y-25338942D01*
X78848346Y-25322294D01*
X79498456Y-25972404D01*
X79498457Y-25972403D01*
X79549030Y-25906498D01*
X79660449Y-25713514D01*
X79660454Y-25713502D01*
X79745736Y-25507618D01*
X79803411Y-25292367D01*
X79803414Y-25292354D01*
X79832500Y-25071424D01*
X79832500Y-24848575D01*
X79803414Y-24627645D01*
X79803411Y-24627632D01*
X79745736Y-24412381D01*
X79660454Y-24206497D01*
X79660449Y-24206485D01*
X79549033Y-24013507D01*
X79498456Y-23947595D01*
X79498455Y-23947595D01*
X78848346Y-24597704D01*
X78841451Y-24581058D01*
X78753901Y-24450030D01*
X78642470Y-24338599D01*
X78511442Y-24251049D01*
X78494793Y-24244152D01*
X79144903Y-23594043D01*
X79144903Y-23594040D01*
X79079004Y-23543473D01*
X79078991Y-23543464D01*
X78886020Y-23432054D01*
X78886002Y-23432045D01*
X78680118Y-23346763D01*
X78464867Y-23289088D01*
X78464854Y-23289085D01*
X78243925Y-23260000D01*
X78021075Y-23260000D01*
X77800145Y-23289085D01*
X77800132Y-23289088D01*
X77584881Y-23346763D01*
X77378997Y-23432045D01*
X77378979Y-23432054D01*
X77186011Y-23543462D01*
X77120095Y-23594042D01*
X77770206Y-24244152D01*
X77753558Y-24251049D01*
X77622530Y-24338599D01*
X77511099Y-24450030D01*
X77423549Y-24581058D01*
X77416653Y-24597706D01*
X76766542Y-23947595D01*
X76715962Y-24013511D01*
X76604554Y-24206479D01*
X76604545Y-24206497D01*
X76519263Y-24412381D01*
X76461588Y-24627632D01*
X76461585Y-24627645D01*
X76432500Y-24848575D01*
X71796500Y-24848575D01*
X71796500Y-24742562D01*
X71769142Y-24569838D01*
X71769142Y-24569835D01*
X71715105Y-24403526D01*
X71635710Y-24247706D01*
X71629665Y-24239387D01*
X71042500Y-24826552D01*
X71042500Y-24783000D01*
X71018171Y-24692203D01*
X70971171Y-24610797D01*
X70904703Y-24544329D01*
X70823297Y-24497329D01*
X70732500Y-24473000D01*
X70688947Y-24473000D01*
X71276112Y-23885834D01*
X71276111Y-23885833D01*
X71267800Y-23879794D01*
X71267793Y-23879790D01*
X71111973Y-23800394D01*
X70987423Y-23759926D01*
X70945662Y-23746357D01*
X70772937Y-23719000D01*
X70598063Y-23719000D01*
X70425338Y-23746357D01*
X70425335Y-23746357D01*
X70259026Y-23800394D01*
X70103206Y-23879789D01*
X70094887Y-23885833D01*
X70094887Y-23885834D01*
X70682054Y-24473000D01*
X70638500Y-24473000D01*
X70547703Y-24497329D01*
X70466297Y-24544329D01*
X70399829Y-24610797D01*
X70352829Y-24692203D01*
X70328500Y-24783000D01*
X70328500Y-24826553D01*
X69741334Y-24239387D01*
X69741333Y-24239387D01*
X69735289Y-24247706D01*
X69655894Y-24403526D01*
X69601857Y-24569835D01*
X69601857Y-24569838D01*
X69574500Y-24742562D01*
X66716999Y-24742562D01*
X66716999Y-24171128D01*
X66710591Y-24111517D01*
X66706006Y-24099223D01*
X66660298Y-23976672D01*
X66660293Y-23976664D01*
X66574047Y-23861455D01*
X66574044Y-23861452D01*
X66458835Y-23775206D01*
X66458828Y-23775202D01*
X66323982Y-23724908D01*
X66323983Y-23724908D01*
X66264383Y-23718501D01*
X66264381Y-23718500D01*
X66264373Y-23718500D01*
X66264364Y-23718500D01*
X64946629Y-23718500D01*
X64946623Y-23718501D01*
X64887016Y-23724908D01*
X64752171Y-23775202D01*
X64752164Y-23775206D01*
X64636955Y-23861452D01*
X64636952Y-23861455D01*
X64550706Y-23976664D01*
X64550702Y-23976671D01*
X64500408Y-24111517D01*
X64496271Y-24150000D01*
X64494001Y-24171123D01*
X64494000Y-24171135D01*
X61596768Y-24171135D01*
X61610300Y-24129488D01*
X61660602Y-23974669D01*
X61700000Y-23725928D01*
X61700000Y-23474071D01*
X61660602Y-23225330D01*
X61582780Y-22985815D01*
X61468442Y-22761416D01*
X61394250Y-22659301D01*
X61394250Y-22659300D01*
X60623787Y-23429764D01*
X60612518Y-23387708D01*
X60540110Y-23262292D01*
X60437708Y-23159890D01*
X60312292Y-23087482D01*
X60270232Y-23076212D01*
X61040698Y-22305748D01*
X61029991Y-22297969D01*
X61029989Y-22297967D01*
X60938586Y-22231559D01*
X60881600Y-22202523D01*
X67034000Y-22202523D01*
X67034000Y-22377477D01*
X67061369Y-22550277D01*
X67110011Y-22699982D01*
X67115434Y-22716670D01*
X67194862Y-22872557D01*
X67297689Y-23014087D01*
X67297693Y-23014092D01*
X67421407Y-23137806D01*
X67421412Y-23137810D01*
X67562942Y-23240637D01*
X67562944Y-23240638D01*
X67562947Y-23240640D01*
X67718832Y-23320067D01*
X67885223Y-23374131D01*
X68058023Y-23401500D01*
X68058024Y-23401500D01*
X68232976Y-23401500D01*
X68232977Y-23401500D01*
X68405777Y-23374131D01*
X68572168Y-23320067D01*
X68728053Y-23240640D01*
X68869594Y-23137805D01*
X68993305Y-23014094D01*
X69096140Y-22872553D01*
X69175567Y-22716668D01*
X69229631Y-22550277D01*
X69257000Y-22377477D01*
X69257000Y-22202523D01*
X69229631Y-22029723D01*
X69175567Y-21863332D01*
X69096140Y-21707447D01*
X69096138Y-21707444D01*
X69096137Y-21707442D01*
X68993310Y-21565912D01*
X68993306Y-21565907D01*
X68869592Y-21442193D01*
X68869587Y-21442189D01*
X68728057Y-21339362D01*
X68572170Y-21259934D01*
X68572169Y-21259933D01*
X68572168Y-21259933D01*
X68405777Y-21205869D01*
X68405775Y-21205868D01*
X68405774Y-21205868D01*
X68273033Y-21184844D01*
X68232977Y-21178500D01*
X68058023Y-21178500D01*
X68017966Y-21184844D01*
X67885226Y-21205868D01*
X67718829Y-21259934D01*
X67562942Y-21339362D01*
X67421412Y-21442189D01*
X67421407Y-21442193D01*
X67297693Y-21565907D01*
X67297689Y-21565912D01*
X67194862Y-21707442D01*
X67115434Y-21863329D01*
X67061368Y-22029726D01*
X67041164Y-22157289D01*
X67034000Y-22202523D01*
X60881600Y-22202523D01*
X60714184Y-22117219D01*
X60474669Y-22039397D01*
X60225928Y-22000000D01*
X59974072Y-22000000D01*
X59725330Y-22039397D01*
X59485815Y-22117219D01*
X59261413Y-22231559D01*
X59159301Y-22305747D01*
X59159300Y-22305748D01*
X59929765Y-23076212D01*
X59887708Y-23087482D01*
X59762292Y-23159890D01*
X59659890Y-23262292D01*
X59587482Y-23387708D01*
X59576212Y-23429765D01*
X58805748Y-22659300D01*
X58805747Y-22659301D01*
X58731559Y-22761413D01*
X58617219Y-22985815D01*
X58539397Y-23225330D01*
X58500000Y-23474071D01*
X54080500Y-23474071D01*
X54080500Y-22699990D01*
X54069999Y-22597202D01*
X54014814Y-22430665D01*
X53922712Y-22281344D01*
X53798656Y-22157288D01*
X53649335Y-22065186D01*
X53482798Y-22010001D01*
X53482796Y-22010000D01*
X53380017Y-21999500D01*
X53380010Y-21999500D01*
X51579990Y-21999500D01*
X51579982Y-21999500D01*
X51477203Y-22010000D01*
X51477202Y-22010001D01*
X51417685Y-22029723D01*
X51310667Y-22065185D01*
X51310662Y-22065187D01*
X51161342Y-22157289D01*
X51037289Y-22281342D01*
X50945187Y-22430662D01*
X50945186Y-22430665D01*
X50890001Y-22597202D01*
X50890001Y-22597203D01*
X50890000Y-22597203D01*
X50879500Y-22699982D01*
X50039167Y-22699982D01*
X49947213Y-22608028D01*
X49781613Y-22487715D01*
X49781612Y-22487714D01*
X49781610Y-22487713D01*
X49724653Y-22458691D01*
X49599223Y-22394781D01*
X49404534Y-22331522D01*
X49220106Y-22302312D01*
X49202352Y-22299500D01*
X48997648Y-22299500D01*
X48979894Y-22302312D01*
X48795465Y-22331522D01*
X48600776Y-22394781D01*
X48418386Y-22487715D01*
X48252786Y-22608028D01*
X48108028Y-22752786D01*
X47987715Y-22918386D01*
X47894781Y-23100776D01*
X47831522Y-23295465D01*
X47799500Y-23497648D01*
X42780500Y-23497648D01*
X42760937Y-23374131D01*
X42748477Y-23295465D01*
X42685218Y-23100776D01*
X42641047Y-23014087D01*
X42592287Y-22918390D01*
X42558985Y-22872553D01*
X42471971Y-22752786D01*
X42327213Y-22608028D01*
X42161613Y-22487715D01*
X42161612Y-22487714D01*
X42161610Y-22487713D01*
X42104653Y-22458691D01*
X41979223Y-22394781D01*
X41784534Y-22331522D01*
X41600106Y-22302312D01*
X41582352Y-22299500D01*
X41377648Y-22299500D01*
X41359894Y-22302312D01*
X41175465Y-22331522D01*
X40980776Y-22394781D01*
X40798386Y-22487715D01*
X40632786Y-22608028D01*
X40488028Y-22752786D01*
X40367715Y-22918386D01*
X40274781Y-23100776D01*
X40211522Y-23295465D01*
X40179500Y-23497648D01*
X39410499Y-23497648D01*
X39410499Y-22199992D01*
X39399999Y-22097203D01*
X39344814Y-21930666D01*
X39252712Y-21781344D01*
X39128656Y-21657288D01*
X38980503Y-21565907D01*
X38979336Y-21565187D01*
X38979331Y-21565185D01*
X38977862Y-21564698D01*
X38812797Y-21510001D01*
X38812795Y-21510000D01*
X38710010Y-21499500D01*
X35909998Y-21499500D01*
X35909981Y-21499501D01*
X35807203Y-21510000D01*
X35807200Y-21510001D01*
X35640668Y-21565185D01*
X35640663Y-21565187D01*
X35491342Y-21657289D01*
X35367289Y-21781342D01*
X35275187Y-21930663D01*
X35275186Y-21930666D01*
X35220001Y-22097203D01*
X35220001Y-22097204D01*
X35220000Y-22097204D01*
X35209500Y-22199983D01*
X23116461Y-22199983D01*
X23367686Y-21948758D01*
X23239196Y-21850163D01*
X23000802Y-21712527D01*
X23000787Y-21712520D01*
X22746471Y-21607180D01*
X22480565Y-21535930D01*
X22207642Y-21500000D01*
X21932358Y-21500000D01*
X21659434Y-21535930D01*
X21393528Y-21607180D01*
X21139212Y-21712520D01*
X21139197Y-21712527D01*
X20900799Y-21850166D01*
X20772312Y-21948757D01*
X20772312Y-21948758D01*
X21707706Y-22884152D01*
X21691058Y-22891049D01*
X21560030Y-22978599D01*
X21448599Y-23090030D01*
X21361049Y-23221058D01*
X21354152Y-23237706D01*
X20418758Y-22302312D01*
X20412609Y-22302715D01*
X20399821Y-22299853D01*
X20386853Y-22301718D01*
X20366383Y-22292370D01*
X20344426Y-22287456D01*
X20335217Y-22278136D01*
X20323297Y-22272693D01*
X20311130Y-22253760D01*
X20295316Y-22237757D01*
X20291747Y-22223600D01*
X20285523Y-22213915D01*
X20280500Y-22178980D01*
X20280500Y-20824500D01*
X20300185Y-20757461D01*
X20352989Y-20711706D01*
X20404500Y-20700500D01*
X84265500Y-20700500D01*
X84332539Y-20720185D01*
G37*
%TD.AperFunction*%
%TD*%
M02*
