%TF.GenerationSoftware,KiCad,Pcbnew,10.0.3*%
%TF.CreationDate,2026-07-07T22:15:06-07:00*%
%TF.ProjectId,101a power supply pcb,31303161-2070-46f7-9765-722073757070,rev?*%
%TF.SameCoordinates,Original*%
%TF.FileFunction,Legend,Top*%
%TF.FilePolarity,Positive*%
%FSLAX46Y46*%
G04 Gerber Fmt 4.6, Leading zero omitted, Abs format (unit mm)*
G04 Created by KiCad (PCBNEW 10.0.3) date 2026-07-07 22:15:06*
%MOMM*%
%LPD*%
G01*
G04 APERTURE LIST*
%ADD10C,0.100000*%
%ADD11C,0.120000*%
%ADD12C,0.200000*%
%ADD13C,0.127000*%
G04 APERTURE END LIST*
D10*
X43527217Y-42548609D02*
X43670074Y-42596228D01*
X43670074Y-42596228D02*
X43717693Y-42643847D01*
X43717693Y-42643847D02*
X43765312Y-42739085D01*
X43765312Y-42739085D02*
X43765312Y-42881942D01*
X43765312Y-42881942D02*
X43717693Y-42977180D01*
X43717693Y-42977180D02*
X43670074Y-43024800D01*
X43670074Y-43024800D02*
X43574836Y-43072419D01*
X43574836Y-43072419D02*
X43193884Y-43072419D01*
X43193884Y-43072419D02*
X43193884Y-42072419D01*
X43193884Y-42072419D02*
X43527217Y-42072419D01*
X43527217Y-42072419D02*
X43622455Y-42120038D01*
X43622455Y-42120038D02*
X43670074Y-42167657D01*
X43670074Y-42167657D02*
X43717693Y-42262895D01*
X43717693Y-42262895D02*
X43717693Y-42358133D01*
X43717693Y-42358133D02*
X43670074Y-42453371D01*
X43670074Y-42453371D02*
X43622455Y-42500990D01*
X43622455Y-42500990D02*
X43527217Y-42548609D01*
X43527217Y-42548609D02*
X43193884Y-42548609D01*
X44574836Y-43024800D02*
X44479598Y-43072419D01*
X44479598Y-43072419D02*
X44289122Y-43072419D01*
X44289122Y-43072419D02*
X44193884Y-43024800D01*
X44193884Y-43024800D02*
X44146265Y-42929561D01*
X44146265Y-42929561D02*
X44146265Y-42548609D01*
X44146265Y-42548609D02*
X44193884Y-42453371D01*
X44193884Y-42453371D02*
X44289122Y-42405752D01*
X44289122Y-42405752D02*
X44479598Y-42405752D01*
X44479598Y-42405752D02*
X44574836Y-42453371D01*
X44574836Y-42453371D02*
X44622455Y-42548609D01*
X44622455Y-42548609D02*
X44622455Y-42643847D01*
X44622455Y-42643847D02*
X44146265Y-42739085D01*
X45051027Y-42405752D02*
X45051027Y-43072419D01*
X45051027Y-42500990D02*
X45098646Y-42453371D01*
X45098646Y-42453371D02*
X45193884Y-42405752D01*
X45193884Y-42405752D02*
X45336741Y-42405752D01*
X45336741Y-42405752D02*
X45431979Y-42453371D01*
X45431979Y-42453371D02*
X45479598Y-42548609D01*
X45479598Y-42548609D02*
X45479598Y-43072419D01*
X46384360Y-43024800D02*
X46289122Y-43072419D01*
X46289122Y-43072419D02*
X46098646Y-43072419D01*
X46098646Y-43072419D02*
X46003408Y-43024800D01*
X46003408Y-43024800D02*
X45955789Y-42977180D01*
X45955789Y-42977180D02*
X45908170Y-42881942D01*
X45908170Y-42881942D02*
X45908170Y-42596228D01*
X45908170Y-42596228D02*
X45955789Y-42500990D01*
X45955789Y-42500990D02*
X46003408Y-42453371D01*
X46003408Y-42453371D02*
X46098646Y-42405752D01*
X46098646Y-42405752D02*
X46289122Y-42405752D01*
X46289122Y-42405752D02*
X46384360Y-42453371D01*
X46812932Y-43072419D02*
X46812932Y-42072419D01*
X47241503Y-43072419D02*
X47241503Y-42548609D01*
X47241503Y-42548609D02*
X47193884Y-42453371D01*
X47193884Y-42453371D02*
X47098646Y-42405752D01*
X47098646Y-42405752D02*
X46955789Y-42405752D01*
X46955789Y-42405752D02*
X46860551Y-42453371D01*
X46860551Y-42453371D02*
X46812932Y-42500990D01*
X48479599Y-43072419D02*
X48479599Y-42072419D01*
X48479599Y-42072419D02*
X48860551Y-42072419D01*
X48860551Y-42072419D02*
X48955789Y-42120038D01*
X48955789Y-42120038D02*
X49003408Y-42167657D01*
X49003408Y-42167657D02*
X49051027Y-42262895D01*
X49051027Y-42262895D02*
X49051027Y-42405752D01*
X49051027Y-42405752D02*
X49003408Y-42500990D01*
X49003408Y-42500990D02*
X48955789Y-42548609D01*
X48955789Y-42548609D02*
X48860551Y-42596228D01*
X48860551Y-42596228D02*
X48479599Y-42596228D01*
X49622456Y-43072419D02*
X49527218Y-43024800D01*
X49527218Y-43024800D02*
X49479599Y-42977180D01*
X49479599Y-42977180D02*
X49431980Y-42881942D01*
X49431980Y-42881942D02*
X49431980Y-42596228D01*
X49431980Y-42596228D02*
X49479599Y-42500990D01*
X49479599Y-42500990D02*
X49527218Y-42453371D01*
X49527218Y-42453371D02*
X49622456Y-42405752D01*
X49622456Y-42405752D02*
X49765313Y-42405752D01*
X49765313Y-42405752D02*
X49860551Y-42453371D01*
X49860551Y-42453371D02*
X49908170Y-42500990D01*
X49908170Y-42500990D02*
X49955789Y-42596228D01*
X49955789Y-42596228D02*
X49955789Y-42881942D01*
X49955789Y-42881942D02*
X49908170Y-42977180D01*
X49908170Y-42977180D02*
X49860551Y-43024800D01*
X49860551Y-43024800D02*
X49765313Y-43072419D01*
X49765313Y-43072419D02*
X49622456Y-43072419D01*
X50289123Y-42405752D02*
X50479599Y-43072419D01*
X50479599Y-43072419D02*
X50670075Y-42596228D01*
X50670075Y-42596228D02*
X50860551Y-43072419D01*
X50860551Y-43072419D02*
X51051027Y-42405752D01*
X51812932Y-43024800D02*
X51717694Y-43072419D01*
X51717694Y-43072419D02*
X51527218Y-43072419D01*
X51527218Y-43072419D02*
X51431980Y-43024800D01*
X51431980Y-43024800D02*
X51384361Y-42929561D01*
X51384361Y-42929561D02*
X51384361Y-42548609D01*
X51384361Y-42548609D02*
X51431980Y-42453371D01*
X51431980Y-42453371D02*
X51527218Y-42405752D01*
X51527218Y-42405752D02*
X51717694Y-42405752D01*
X51717694Y-42405752D02*
X51812932Y-42453371D01*
X51812932Y-42453371D02*
X51860551Y-42548609D01*
X51860551Y-42548609D02*
X51860551Y-42643847D01*
X51860551Y-42643847D02*
X51384361Y-42739085D01*
X52289123Y-43072419D02*
X52289123Y-42405752D01*
X52289123Y-42596228D02*
X52336742Y-42500990D01*
X52336742Y-42500990D02*
X52384361Y-42453371D01*
X52384361Y-42453371D02*
X52479599Y-42405752D01*
X52479599Y-42405752D02*
X52574837Y-42405752D01*
X53622457Y-43024800D02*
X53765314Y-43072419D01*
X53765314Y-43072419D02*
X54003409Y-43072419D01*
X54003409Y-43072419D02*
X54098647Y-43024800D01*
X54098647Y-43024800D02*
X54146266Y-42977180D01*
X54146266Y-42977180D02*
X54193885Y-42881942D01*
X54193885Y-42881942D02*
X54193885Y-42786704D01*
X54193885Y-42786704D02*
X54146266Y-42691466D01*
X54146266Y-42691466D02*
X54098647Y-42643847D01*
X54098647Y-42643847D02*
X54003409Y-42596228D01*
X54003409Y-42596228D02*
X53812933Y-42548609D01*
X53812933Y-42548609D02*
X53717695Y-42500990D01*
X53717695Y-42500990D02*
X53670076Y-42453371D01*
X53670076Y-42453371D02*
X53622457Y-42358133D01*
X53622457Y-42358133D02*
X53622457Y-42262895D01*
X53622457Y-42262895D02*
X53670076Y-42167657D01*
X53670076Y-42167657D02*
X53717695Y-42120038D01*
X53717695Y-42120038D02*
X53812933Y-42072419D01*
X53812933Y-42072419D02*
X54051028Y-42072419D01*
X54051028Y-42072419D02*
X54193885Y-42120038D01*
X55051028Y-42405752D02*
X55051028Y-43072419D01*
X54622457Y-42405752D02*
X54622457Y-42929561D01*
X54622457Y-42929561D02*
X54670076Y-43024800D01*
X54670076Y-43024800D02*
X54765314Y-43072419D01*
X54765314Y-43072419D02*
X54908171Y-43072419D01*
X54908171Y-43072419D02*
X55003409Y-43024800D01*
X55003409Y-43024800D02*
X55051028Y-42977180D01*
X55527219Y-42405752D02*
X55527219Y-43405752D01*
X55527219Y-42453371D02*
X55622457Y-42405752D01*
X55622457Y-42405752D02*
X55812933Y-42405752D01*
X55812933Y-42405752D02*
X55908171Y-42453371D01*
X55908171Y-42453371D02*
X55955790Y-42500990D01*
X55955790Y-42500990D02*
X56003409Y-42596228D01*
X56003409Y-42596228D02*
X56003409Y-42881942D01*
X56003409Y-42881942D02*
X55955790Y-42977180D01*
X55955790Y-42977180D02*
X55908171Y-43024800D01*
X55908171Y-43024800D02*
X55812933Y-43072419D01*
X55812933Y-43072419D02*
X55622457Y-43072419D01*
X55622457Y-43072419D02*
X55527219Y-43024800D01*
X56431981Y-42405752D02*
X56431981Y-43405752D01*
X56431981Y-42453371D02*
X56527219Y-42405752D01*
X56527219Y-42405752D02*
X56717695Y-42405752D01*
X56717695Y-42405752D02*
X56812933Y-42453371D01*
X56812933Y-42453371D02*
X56860552Y-42500990D01*
X56860552Y-42500990D02*
X56908171Y-42596228D01*
X56908171Y-42596228D02*
X56908171Y-42881942D01*
X56908171Y-42881942D02*
X56860552Y-42977180D01*
X56860552Y-42977180D02*
X56812933Y-43024800D01*
X56812933Y-43024800D02*
X56717695Y-43072419D01*
X56717695Y-43072419D02*
X56527219Y-43072419D01*
X56527219Y-43072419D02*
X56431981Y-43024800D01*
X57479600Y-43072419D02*
X57384362Y-43024800D01*
X57384362Y-43024800D02*
X57336743Y-42929561D01*
X57336743Y-42929561D02*
X57336743Y-42072419D01*
X57765315Y-42405752D02*
X58003410Y-43072419D01*
X58241505Y-42405752D02*
X58003410Y-43072419D01*
X58003410Y-43072419D02*
X57908172Y-43310514D01*
X57908172Y-43310514D02*
X57860553Y-43358133D01*
X57860553Y-43358133D02*
X57765315Y-43405752D01*
%TO.C,C1*%
D11*
X62865000Y-26882918D02*
X62865000Y-28132918D01*
X63490000Y-27507918D02*
X62240000Y-27507918D01*
X65620000Y-33700000D02*
X52960000Y-33700000D01*
X65620000Y-33740000D02*
X52960000Y-33740000D01*
X65619000Y-33780000D02*
X52961000Y-33780000D01*
X65619000Y-33820000D02*
X52961000Y-33820000D01*
X65618000Y-33860000D02*
X52962000Y-33860000D01*
X65617000Y-33900000D02*
X52963000Y-33900000D01*
X65615000Y-33940000D02*
X52965000Y-33940000D01*
X65614000Y-33980000D02*
X52966000Y-33980000D01*
X65612000Y-34020000D02*
X52968000Y-34020000D01*
X65610000Y-34060000D02*
X52970000Y-34060000D01*
X65607000Y-34100000D02*
X52973000Y-34100000D01*
X65605000Y-34140000D02*
X52975000Y-34140000D01*
X65602000Y-34180000D02*
X52978000Y-34180000D01*
X65599000Y-34220000D02*
X52981000Y-34220000D01*
X65595000Y-34260000D02*
X52985000Y-34260000D01*
X65592000Y-34300000D02*
X52988000Y-34300000D01*
X65588000Y-34340000D02*
X52992000Y-34340000D01*
X65584000Y-34380000D02*
X52996000Y-34380000D01*
X65579000Y-34420000D02*
X53001000Y-34420000D01*
X65574000Y-34460000D02*
X53006000Y-34460000D01*
X65570000Y-34500000D02*
X53010000Y-34500000D01*
X65564000Y-34540000D02*
X53016000Y-34540000D01*
X65559000Y-34580000D02*
X53021000Y-34580000D01*
X65553000Y-34620000D02*
X53027000Y-34620000D01*
X65547000Y-34660000D02*
X53033000Y-34660000D01*
X65541000Y-34700000D02*
X53039000Y-34700000D01*
X65535000Y-34740000D02*
X53045000Y-34740000D01*
X65528000Y-34780000D02*
X60730000Y-34780000D01*
X57850000Y-34780000D02*
X53052000Y-34780000D01*
X65521000Y-34820000D02*
X60730000Y-34820000D01*
X57850000Y-34820000D02*
X53059000Y-34820000D01*
X65513000Y-34860000D02*
X60730000Y-34860000D01*
X57850000Y-34860000D02*
X53067000Y-34860000D01*
X65506000Y-34900000D02*
X60730000Y-34900000D01*
X57850000Y-34900000D02*
X53074000Y-34900000D01*
X65498000Y-34940000D02*
X60730000Y-34940000D01*
X57850000Y-34940000D02*
X53082000Y-34940000D01*
X65490000Y-34980000D02*
X60730000Y-34980000D01*
X57850000Y-34980000D02*
X53090000Y-34980000D01*
X65482000Y-35020000D02*
X60730000Y-35020000D01*
X57850000Y-35020000D02*
X53098000Y-35020000D01*
X65473000Y-35060000D02*
X60730000Y-35060000D01*
X57850000Y-35060000D02*
X53107000Y-35060000D01*
X65464000Y-35100000D02*
X60730000Y-35100000D01*
X57850000Y-35100000D02*
X53116000Y-35100000D01*
X65455000Y-35140000D02*
X60730000Y-35140000D01*
X57850000Y-35140000D02*
X53125000Y-35140000D01*
X65446000Y-35180000D02*
X60730000Y-35180000D01*
X57850000Y-35180000D02*
X53134000Y-35180000D01*
X65436000Y-35220000D02*
X60730000Y-35220000D01*
X57850000Y-35220000D02*
X53144000Y-35220000D01*
X65426000Y-35260000D02*
X60730000Y-35260000D01*
X57850000Y-35260000D02*
X53154000Y-35260000D01*
X65416000Y-35300000D02*
X60730000Y-35300000D01*
X57850000Y-35300000D02*
X53164000Y-35300000D01*
X65405000Y-35340000D02*
X60730000Y-35340000D01*
X57850000Y-35340000D02*
X53175000Y-35340000D01*
X65394000Y-35380000D02*
X60730000Y-35380000D01*
X57850000Y-35380000D02*
X53186000Y-35380000D01*
X65383000Y-35420000D02*
X60730000Y-35420000D01*
X57850000Y-35420000D02*
X53197000Y-35420000D01*
X65372000Y-35460000D02*
X60730000Y-35460000D01*
X57850000Y-35460000D02*
X53208000Y-35460000D01*
X65360000Y-35500000D02*
X60730000Y-35500000D01*
X57850000Y-35500000D02*
X53220000Y-35500000D01*
X65348000Y-35540000D02*
X60730000Y-35540000D01*
X57850000Y-35540000D02*
X53232000Y-35540000D01*
X65336000Y-35580000D02*
X60730000Y-35580000D01*
X57850000Y-35580000D02*
X53244000Y-35580000D01*
X65324000Y-35620000D02*
X60730000Y-35620000D01*
X57850000Y-35620000D02*
X53256000Y-35620000D01*
X65311000Y-35660000D02*
X60730000Y-35660000D01*
X57850000Y-35660000D02*
X53269000Y-35660000D01*
X65298000Y-35700000D02*
X60730000Y-35700000D01*
X57850000Y-35700000D02*
X53282000Y-35700000D01*
X65285000Y-35740000D02*
X60730000Y-35740000D01*
X57850000Y-35740000D02*
X53295000Y-35740000D01*
X65271000Y-35780000D02*
X60730000Y-35780000D01*
X57850000Y-35780000D02*
X53309000Y-35780000D01*
X65257000Y-35820000D02*
X60730000Y-35820000D01*
X57850000Y-35820000D02*
X53323000Y-35820000D01*
X65243000Y-35860000D02*
X60730000Y-35860000D01*
X57850000Y-35860000D02*
X53337000Y-35860000D01*
X65228000Y-35900000D02*
X60730000Y-35900000D01*
X57850000Y-35900000D02*
X53352000Y-35900000D01*
X65213000Y-35940000D02*
X60730000Y-35940000D01*
X57850000Y-35940000D02*
X53367000Y-35940000D01*
X65198000Y-35980000D02*
X60730000Y-35980000D01*
X57850000Y-35980000D02*
X53382000Y-35980000D01*
X65182000Y-36020000D02*
X60730000Y-36020000D01*
X57850000Y-36020000D02*
X53398000Y-36020000D01*
X65167000Y-36060000D02*
X60730000Y-36060000D01*
X57850000Y-36060000D02*
X53413000Y-36060000D01*
X65151000Y-36100000D02*
X60730000Y-36100000D01*
X57850000Y-36100000D02*
X53429000Y-36100000D01*
X65134000Y-36140000D02*
X60730000Y-36140000D01*
X57850000Y-36140000D02*
X53446000Y-36140000D01*
X65117000Y-36180000D02*
X60730000Y-36180000D01*
X57850000Y-36180000D02*
X53463000Y-36180000D01*
X65100000Y-36220000D02*
X60730000Y-36220000D01*
X57850000Y-36220000D02*
X53480000Y-36220000D01*
X65083000Y-36260000D02*
X60730000Y-36260000D01*
X57850000Y-36260000D02*
X53497000Y-36260000D01*
X65065000Y-36300000D02*
X60730000Y-36300000D01*
X57850000Y-36300000D02*
X53515000Y-36300000D01*
X65047000Y-36340000D02*
X60730000Y-36340000D01*
X57850000Y-36340000D02*
X53533000Y-36340000D01*
X65029000Y-36380000D02*
X60730000Y-36380000D01*
X57850000Y-36380000D02*
X53551000Y-36380000D01*
X65010000Y-36420000D02*
X60730000Y-36420000D01*
X57850000Y-36420000D02*
X53570000Y-36420000D01*
X64991000Y-36460000D02*
X60730000Y-36460000D01*
X57850000Y-36460000D02*
X53589000Y-36460000D01*
X64972000Y-36500000D02*
X60730000Y-36500000D01*
X57850000Y-36500000D02*
X53608000Y-36500000D01*
X64952000Y-36540000D02*
X60730000Y-36540000D01*
X57850000Y-36540000D02*
X53628000Y-36540000D01*
X64932000Y-36580000D02*
X60730000Y-36580000D01*
X57850000Y-36580000D02*
X53648000Y-36580000D01*
X64911000Y-36620000D02*
X60730000Y-36620000D01*
X57850000Y-36620000D02*
X53669000Y-36620000D01*
X64891000Y-36660000D02*
X60730000Y-36660000D01*
X57850000Y-36660000D02*
X53689000Y-36660000D01*
X64869000Y-36700000D02*
X60730000Y-36700000D01*
X57850000Y-36700000D02*
X53711000Y-36700000D01*
X64848000Y-36740000D02*
X60730000Y-36740000D01*
X57850000Y-36740000D02*
X53732000Y-36740000D01*
X64826000Y-36780000D02*
X60730000Y-36780000D01*
X57850000Y-36780000D02*
X53754000Y-36780000D01*
X64804000Y-36820000D02*
X60730000Y-36820000D01*
X57850000Y-36820000D02*
X53776000Y-36820000D01*
X64781000Y-36860000D02*
X60730000Y-36860000D01*
X57850000Y-36860000D02*
X53799000Y-36860000D01*
X64758000Y-36900000D02*
X60730000Y-36900000D01*
X57850000Y-36900000D02*
X53822000Y-36900000D01*
X64734000Y-36940000D02*
X60730000Y-36940000D01*
X57850000Y-36940000D02*
X53846000Y-36940000D01*
X64711000Y-36980000D02*
X60730000Y-36980000D01*
X57850000Y-36980000D02*
X53869000Y-36980000D01*
X64686000Y-37020000D02*
X60730000Y-37020000D01*
X57850000Y-37020000D02*
X53894000Y-37020000D01*
X64662000Y-37060000D02*
X60730000Y-37060000D01*
X57850000Y-37060000D02*
X53918000Y-37060000D01*
X64637000Y-37100000D02*
X60730000Y-37100000D01*
X57850000Y-37100000D02*
X53943000Y-37100000D01*
X64611000Y-37140000D02*
X60730000Y-37140000D01*
X57850000Y-37140000D02*
X53969000Y-37140000D01*
X64585000Y-37180000D02*
X60730000Y-37180000D01*
X57850000Y-37180000D02*
X53995000Y-37180000D01*
X64559000Y-37220000D02*
X60730000Y-37220000D01*
X57850000Y-37220000D02*
X54021000Y-37220000D01*
X64532000Y-37260000D02*
X60730000Y-37260000D01*
X57850000Y-37260000D02*
X54048000Y-37260000D01*
X64505000Y-37300000D02*
X60730000Y-37300000D01*
X57850000Y-37300000D02*
X54075000Y-37300000D01*
X64478000Y-37340000D02*
X60730000Y-37340000D01*
X57850000Y-37340000D02*
X54102000Y-37340000D01*
X64449000Y-37380000D02*
X60730000Y-37380000D01*
X57850000Y-37380000D02*
X54131000Y-37380000D01*
X64421000Y-37420000D02*
X60730000Y-37420000D01*
X57850000Y-37420000D02*
X54159000Y-37420000D01*
X64392000Y-37460000D02*
X60730000Y-37460000D01*
X57850000Y-37460000D02*
X54188000Y-37460000D01*
X64362000Y-37500000D02*
X60730000Y-37500000D01*
X57850000Y-37500000D02*
X54218000Y-37500000D01*
X64332000Y-37540000D02*
X60730000Y-37540000D01*
X57850000Y-37540000D02*
X54248000Y-37540000D01*
X64302000Y-37580000D02*
X60730000Y-37580000D01*
X57850000Y-37580000D02*
X54278000Y-37580000D01*
X64271000Y-37620000D02*
X60730000Y-37620000D01*
X57850000Y-37620000D02*
X54309000Y-37620000D01*
X64240000Y-37660000D02*
X54340000Y-37660000D01*
X64208000Y-37700000D02*
X54372000Y-37700000D01*
X64175000Y-37740000D02*
X54405000Y-37740000D01*
X64142000Y-37780000D02*
X54438000Y-37780000D01*
X64108000Y-37820000D02*
X54472000Y-37820000D01*
X64074000Y-37860000D02*
X54506000Y-37860000D01*
X64039000Y-37900000D02*
X54541000Y-37900000D01*
X64004000Y-37940000D02*
X54576000Y-37940000D01*
X63968000Y-37980000D02*
X54612000Y-37980000D01*
X63931000Y-38020000D02*
X54649000Y-38020000D01*
X63894000Y-38060000D02*
X54686000Y-38060000D01*
X63856000Y-38100000D02*
X54724000Y-38100000D01*
X63818000Y-38140000D02*
X54762000Y-38140000D01*
X63778000Y-38180000D02*
X54802000Y-38180000D01*
X63738000Y-38220000D02*
X54842000Y-38220000D01*
X63698000Y-38260000D02*
X54882000Y-38260000D01*
X63656000Y-38300000D02*
X54924000Y-38300000D01*
X63614000Y-38340000D02*
X54966000Y-38340000D01*
X63571000Y-38380000D02*
X55009000Y-38380000D01*
X63528000Y-38420000D02*
X55052000Y-38420000D01*
X63483000Y-38460000D02*
X55097000Y-38460000D01*
X63438000Y-38500000D02*
X55142000Y-38500000D01*
X63391000Y-38540000D02*
X55189000Y-38540000D01*
X63344000Y-38580000D02*
X55236000Y-38580000D01*
X63296000Y-38620000D02*
X55284000Y-38620000D01*
X63247000Y-38660000D02*
X55333000Y-38660000D01*
X63197000Y-38700000D02*
X55383000Y-38700000D01*
X63146000Y-38740000D02*
X55434000Y-38740000D01*
X63093000Y-38780000D02*
X55487000Y-38780000D01*
X63040000Y-38820000D02*
X55540000Y-38820000D01*
X62985000Y-38860000D02*
X55595000Y-38860000D01*
X62929000Y-38900000D02*
X55651000Y-38900000D01*
X62872000Y-38940000D02*
X55708000Y-38940000D01*
X62813000Y-38980000D02*
X55767000Y-38980000D01*
X62753000Y-39020000D02*
X55827000Y-39020000D01*
X62692000Y-39060000D02*
X55888000Y-39060000D01*
X62629000Y-39100000D02*
X55951000Y-39100000D01*
X62564000Y-39140000D02*
X56016000Y-39140000D01*
X62498000Y-39180000D02*
X56082000Y-39180000D01*
X62429000Y-39220000D02*
X56151000Y-39220000D01*
X62359000Y-39260000D02*
X56221000Y-39260000D01*
X62286000Y-39300000D02*
X56294000Y-39300000D01*
X62211000Y-39340000D02*
X56369000Y-39340000D01*
X62133000Y-39380000D02*
X56447000Y-39380000D01*
X62053000Y-39420000D02*
X56527000Y-39420000D01*
X61970000Y-39460000D02*
X56610000Y-39460000D01*
X61884000Y-39500000D02*
X56696000Y-39500000D01*
X61794000Y-39540000D02*
X56786000Y-39540000D01*
X61700000Y-39580000D02*
X56880000Y-39580000D01*
X61602000Y-39620000D02*
X56978000Y-39620000D01*
X61498000Y-39660000D02*
X57082000Y-39660000D01*
X61389000Y-39700000D02*
X57191000Y-39700000D01*
X61274000Y-39740000D02*
X57306000Y-39740000D01*
X61150000Y-39780000D02*
X57430000Y-39780000D01*
X61017000Y-39820000D02*
X57563000Y-39820000D01*
X60872000Y-39860000D02*
X57708000Y-39860000D01*
X60712000Y-39900000D02*
X57868000Y-39900000D01*
X60530000Y-39940000D02*
X58050000Y-39940000D01*
X60317000Y-39980000D02*
X58263000Y-39980000D01*
X60047000Y-40020000D02*
X58533000Y-40020000D01*
X59607000Y-40060000D02*
X58973000Y-40060000D01*
X65660000Y-33700000D02*
G75*
G02*
X52920000Y-33700000I-6370000J0D01*
G01*
X52920000Y-33700000D02*
G75*
G02*
X65660000Y-33700000I6370000J0D01*
G01*
%TO.C,R2*%
X70160000Y-43770000D02*
X63620000Y-43770000D01*
X70160000Y-43440000D02*
X70160000Y-43770000D01*
X70160000Y-41360000D02*
X70160000Y-41030000D01*
X70160000Y-41030000D02*
X63620000Y-41030000D01*
X63620000Y-43770000D02*
X63620000Y-43440000D01*
X63620000Y-41030000D02*
X63620000Y-41360000D01*
%TO.C,R1*%
X48560000Y-24970000D02*
X42020000Y-24970000D01*
X48560000Y-24640000D02*
X48560000Y-24970000D01*
X48560000Y-22560000D02*
X48560000Y-22230000D01*
X48560000Y-22230000D02*
X42020000Y-22230000D01*
X42020000Y-24970000D02*
X42020000Y-24640000D01*
X42020000Y-22230000D02*
X42020000Y-22560000D01*
%TO.C,D5*%
X59010000Y-25070000D02*
X59010000Y-24940000D01*
X59010000Y-22130000D02*
X59010000Y-22260000D01*
X54590000Y-22130000D02*
X54590000Y-25070000D01*
X54470000Y-22130000D02*
X54470000Y-25070000D01*
X54350000Y-22130000D02*
X54350000Y-25070000D01*
X53570000Y-25070000D02*
X59010000Y-25070000D01*
X53570000Y-24940000D02*
X53570000Y-25070000D01*
X53570000Y-22260000D02*
X53570000Y-22130000D01*
X53570000Y-22130000D02*
X59010000Y-22130000D01*
%TO.C,D3*%
X37610000Y-33880000D02*
X47350000Y-33880000D01*
X47350000Y-39320000D01*
X37610000Y-39320000D01*
X37610000Y-33880000D01*
X36700000Y-36600000D02*
X37610000Y-36600000D01*
X45685000Y-39320000D02*
X45685000Y-33880000D01*
X45805000Y-39320000D02*
X45805000Y-33880000D01*
X45925000Y-39320000D02*
X45925000Y-33880000D01*
X48260000Y-36600000D02*
X47350000Y-36600000D01*
%TO.C,C2*%
X82810000Y-39932323D02*
G75*
G02*
X72570000Y-39932323I-5120000J0D01*
G01*
X72570000Y-39932323D02*
G75*
G02*
X82810000Y-39932323I5120000J0D01*
G01*
X78289000Y-45012323D02*
X77091000Y-45012323D01*
X78552000Y-44972323D02*
X76828000Y-44972323D01*
X78752000Y-44932323D02*
X76628000Y-44932323D01*
X78920000Y-44892323D02*
X76460000Y-44892323D01*
X79067000Y-44852323D02*
X76313000Y-44852323D01*
X79199000Y-44812323D02*
X76181000Y-44812323D01*
X79320000Y-44772323D02*
X76060000Y-44772323D01*
X79432000Y-44732323D02*
X75948000Y-44732323D01*
X79536000Y-44692323D02*
X75844000Y-44692323D01*
X79634000Y-44652323D02*
X75746000Y-44652323D01*
X79727000Y-44612323D02*
X75653000Y-44612323D01*
X79814000Y-44572323D02*
X75566000Y-44572323D01*
X79898000Y-44532323D02*
X75482000Y-44532323D01*
X79978000Y-44492323D02*
X75402000Y-44492323D01*
X80055000Y-44452323D02*
X75325000Y-44452323D01*
X80129000Y-44412323D02*
X75251000Y-44412323D01*
X80200000Y-44372323D02*
X75180000Y-44372323D01*
X80268000Y-44332323D02*
X75112000Y-44332323D01*
X80334000Y-44292323D02*
X75046000Y-44292323D01*
X80398000Y-44252323D02*
X74982000Y-44252323D01*
X80460000Y-44212323D02*
X74920000Y-44212323D01*
X80520000Y-44172323D02*
X74860000Y-44172323D01*
X80578000Y-44132323D02*
X74802000Y-44132323D01*
X80635000Y-44092323D02*
X74745000Y-44092323D01*
X80690000Y-44052323D02*
X74690000Y-44052323D01*
X80743000Y-44012323D02*
X74637000Y-44012323D01*
X80795000Y-43972323D02*
X74585000Y-43972323D01*
X80846000Y-43932323D02*
X74534000Y-43932323D01*
X80895000Y-43892323D02*
X74485000Y-43892323D01*
X80944000Y-43852323D02*
X74436000Y-43852323D01*
X80991000Y-43812323D02*
X74389000Y-43812323D01*
X81037000Y-43772323D02*
X74343000Y-43772323D01*
X81081000Y-43732323D02*
X74299000Y-43732323D01*
X81125000Y-43692323D02*
X74255000Y-43692323D01*
X76450000Y-43652323D02*
X74212000Y-43652323D01*
X81168000Y-43652323D02*
X78930000Y-43652323D01*
X76450000Y-43612323D02*
X74170000Y-43612323D01*
X81210000Y-43612323D02*
X78930000Y-43612323D01*
X76450000Y-43572323D02*
X74129000Y-43572323D01*
X81251000Y-43572323D02*
X78930000Y-43572323D01*
X76450000Y-43532323D02*
X74089000Y-43532323D01*
X81291000Y-43532323D02*
X78930000Y-43532323D01*
X76450000Y-43492323D02*
X74050000Y-43492323D01*
X81330000Y-43492323D02*
X78930000Y-43492323D01*
X76450000Y-43452323D02*
X74012000Y-43452323D01*
X81368000Y-43452323D02*
X78930000Y-43452323D01*
X76450000Y-43412323D02*
X73974000Y-43412323D01*
X81406000Y-43412323D02*
X78930000Y-43412323D01*
X76450000Y-43372323D02*
X73938000Y-43372323D01*
X81442000Y-43372323D02*
X78930000Y-43372323D01*
X76450000Y-43332323D02*
X73902000Y-43332323D01*
X81478000Y-43332323D02*
X78930000Y-43332323D01*
X76450000Y-43292323D02*
X73867000Y-43292323D01*
X81513000Y-43292323D02*
X78930000Y-43292323D01*
X76450000Y-43252323D02*
X73832000Y-43252323D01*
X81548000Y-43252323D02*
X78930000Y-43252323D01*
X76450000Y-43212323D02*
X73799000Y-43212323D01*
X81581000Y-43212323D02*
X78930000Y-43212323D01*
X76450000Y-43172323D02*
X73766000Y-43172323D01*
X81614000Y-43172323D02*
X78930000Y-43172323D01*
X76450000Y-43132323D02*
X73733000Y-43132323D01*
X81647000Y-43132323D02*
X78930000Y-43132323D01*
X76450000Y-43092323D02*
X73702000Y-43092323D01*
X81678000Y-43092323D02*
X78930000Y-43092323D01*
X76450000Y-43052323D02*
X73670000Y-43052323D01*
X81710000Y-43052323D02*
X78930000Y-43052323D01*
X76450000Y-43012323D02*
X73640000Y-43012323D01*
X81740000Y-43012323D02*
X78930000Y-43012323D01*
X76450000Y-42972323D02*
X73610000Y-42972323D01*
X81770000Y-42972323D02*
X78930000Y-42972323D01*
X76450000Y-42932323D02*
X73581000Y-42932323D01*
X81799000Y-42932323D02*
X78930000Y-42932323D01*
X76450000Y-42892323D02*
X73552000Y-42892323D01*
X81828000Y-42892323D02*
X78930000Y-42892323D01*
X76450000Y-42852323D02*
X73524000Y-42852323D01*
X81856000Y-42852323D02*
X78930000Y-42852323D01*
X76450000Y-42812323D02*
X73497000Y-42812323D01*
X81883000Y-42812323D02*
X78930000Y-42812323D01*
X76450000Y-42772323D02*
X73470000Y-42772323D01*
X81910000Y-42772323D02*
X78930000Y-42772323D01*
X76450000Y-42732323D02*
X73443000Y-42732323D01*
X81937000Y-42732323D02*
X78930000Y-42732323D01*
X76450000Y-42692323D02*
X73418000Y-42692323D01*
X81962000Y-42692323D02*
X78930000Y-42692323D01*
X76450000Y-42652323D02*
X73392000Y-42652323D01*
X81988000Y-42652323D02*
X78930000Y-42652323D01*
X76450000Y-42612323D02*
X73367000Y-42612323D01*
X82013000Y-42612323D02*
X78930000Y-42612323D01*
X76450000Y-42572323D02*
X73343000Y-42572323D01*
X82037000Y-42572323D02*
X78930000Y-42572323D01*
X76450000Y-42532323D02*
X73319000Y-42532323D01*
X82061000Y-42532323D02*
X78930000Y-42532323D01*
X76450000Y-42492323D02*
X73296000Y-42492323D01*
X82084000Y-42492323D02*
X78930000Y-42492323D01*
X76450000Y-42452323D02*
X73273000Y-42452323D01*
X82107000Y-42452323D02*
X78930000Y-42452323D01*
X76450000Y-42412323D02*
X73251000Y-42412323D01*
X82129000Y-42412323D02*
X78930000Y-42412323D01*
X76450000Y-42372323D02*
X73229000Y-42372323D01*
X82151000Y-42372323D02*
X78930000Y-42372323D01*
X76450000Y-42332323D02*
X73207000Y-42332323D01*
X82173000Y-42332323D02*
X78930000Y-42332323D01*
X76450000Y-42292323D02*
X73186000Y-42292323D01*
X82194000Y-42292323D02*
X78930000Y-42292323D01*
X76450000Y-42252323D02*
X73166000Y-42252323D01*
X82214000Y-42252323D02*
X78930000Y-42252323D01*
X76450000Y-42212323D02*
X73146000Y-42212323D01*
X82234000Y-42212323D02*
X78930000Y-42212323D01*
X76450000Y-42172323D02*
X73126000Y-42172323D01*
X82254000Y-42172323D02*
X78930000Y-42172323D01*
X76450000Y-42132323D02*
X73107000Y-42132323D01*
X82273000Y-42132323D02*
X78930000Y-42132323D01*
X76450000Y-42092323D02*
X73088000Y-42092323D01*
X82292000Y-42092323D02*
X78930000Y-42092323D01*
X76450000Y-42052323D02*
X73070000Y-42052323D01*
X82310000Y-42052323D02*
X78930000Y-42052323D01*
X76450000Y-42012323D02*
X73052000Y-42012323D01*
X82328000Y-42012323D02*
X78930000Y-42012323D01*
X76450000Y-41972323D02*
X73034000Y-41972323D01*
X82346000Y-41972323D02*
X78930000Y-41972323D01*
X76450000Y-41932323D02*
X73017000Y-41932323D01*
X82363000Y-41932323D02*
X78930000Y-41932323D01*
X76450000Y-41892323D02*
X73000000Y-41892323D01*
X82380000Y-41892323D02*
X78930000Y-41892323D01*
X76450000Y-41852323D02*
X72984000Y-41852323D01*
X82396000Y-41852323D02*
X78930000Y-41852323D01*
X76450000Y-41812323D02*
X72968000Y-41812323D01*
X82412000Y-41812323D02*
X78930000Y-41812323D01*
X76450000Y-41772323D02*
X72952000Y-41772323D01*
X82428000Y-41772323D02*
X78930000Y-41772323D01*
X76450000Y-41732323D02*
X72937000Y-41732323D01*
X82443000Y-41732323D02*
X78930000Y-41732323D01*
X76450000Y-41692323D02*
X72922000Y-41692323D01*
X82458000Y-41692323D02*
X78930000Y-41692323D01*
X76450000Y-41652323D02*
X72908000Y-41652323D01*
X82472000Y-41652323D02*
X78930000Y-41652323D01*
X76450000Y-41612323D02*
X72893000Y-41612323D01*
X82487000Y-41612323D02*
X78930000Y-41612323D01*
X76450000Y-41572323D02*
X72880000Y-41572323D01*
X82500000Y-41572323D02*
X78930000Y-41572323D01*
X76450000Y-41532323D02*
X72866000Y-41532323D01*
X82514000Y-41532323D02*
X78930000Y-41532323D01*
X76450000Y-41492323D02*
X72853000Y-41492323D01*
X82527000Y-41492323D02*
X78930000Y-41492323D01*
X76450000Y-41452323D02*
X72841000Y-41452323D01*
X82539000Y-41452323D02*
X78930000Y-41452323D01*
X76450000Y-41412323D02*
X72829000Y-41412323D01*
X82551000Y-41412323D02*
X78930000Y-41412323D01*
X76450000Y-41372323D02*
X72817000Y-41372323D01*
X82563000Y-41372323D02*
X78930000Y-41372323D01*
X76450000Y-41332323D02*
X72805000Y-41332323D01*
X82575000Y-41332323D02*
X78930000Y-41332323D01*
X76450000Y-41292323D02*
X72794000Y-41292323D01*
X82586000Y-41292323D02*
X78930000Y-41292323D01*
X76450000Y-41252323D02*
X72783000Y-41252323D01*
X82597000Y-41252323D02*
X78930000Y-41252323D01*
X76450000Y-41212323D02*
X72773000Y-41212323D01*
X82607000Y-41212323D02*
X78930000Y-41212323D01*
X82618000Y-41172323D02*
X72762000Y-41172323D01*
X82627000Y-41132323D02*
X72753000Y-41132323D01*
X82637000Y-41092323D02*
X72743000Y-41092323D01*
X82646000Y-41052323D02*
X72734000Y-41052323D01*
X82655000Y-41012323D02*
X72725000Y-41012323D01*
X82663000Y-40972323D02*
X72717000Y-40972323D01*
X82671000Y-40932323D02*
X72709000Y-40932323D01*
X82679000Y-40892323D02*
X72701000Y-40892323D01*
X82687000Y-40852323D02*
X72693000Y-40852323D01*
X82694000Y-40812323D02*
X72686000Y-40812323D01*
X82701000Y-40772323D02*
X72679000Y-40772323D01*
X82707000Y-40732323D02*
X72673000Y-40732323D01*
X82713000Y-40692323D02*
X72667000Y-40692323D01*
X82719000Y-40652323D02*
X72661000Y-40652323D01*
X82725000Y-40612323D02*
X72655000Y-40612323D01*
X82730000Y-40572323D02*
X72650000Y-40572323D01*
X82735000Y-40532323D02*
X72645000Y-40532323D01*
X82739000Y-40492323D02*
X72641000Y-40492323D01*
X82744000Y-40452323D02*
X72636000Y-40452323D01*
X82747000Y-40412323D02*
X72633000Y-40412323D01*
X82751000Y-40372323D02*
X72629000Y-40372323D01*
X82754000Y-40332323D02*
X72626000Y-40332323D01*
X82757000Y-40292323D02*
X72623000Y-40292323D01*
X82760000Y-40252323D02*
X72620000Y-40252323D01*
X82762000Y-40212323D02*
X72618000Y-40212323D01*
X82764000Y-40172323D02*
X72616000Y-40172323D01*
X82766000Y-40132323D02*
X72614000Y-40132323D01*
X82767000Y-40092323D02*
X72613000Y-40092323D01*
X82769000Y-40052323D02*
X72611000Y-40052323D01*
X82769000Y-40012323D02*
X72611000Y-40012323D01*
X82770000Y-39972323D02*
X72610000Y-39972323D01*
X82770000Y-39932323D02*
X72610000Y-39932323D01*
X81065000Y-34952677D02*
X80065000Y-34952677D01*
X80565000Y-34452677D02*
X80565000Y-35452677D01*
%TO.C,D1*%
X48270000Y-30200000D02*
X47360000Y-30200000D01*
X45935000Y-32920000D02*
X45935000Y-27480000D01*
X45815000Y-32920000D02*
X45815000Y-27480000D01*
X45695000Y-32920000D02*
X45695000Y-27480000D01*
X36710000Y-30200000D02*
X37620000Y-30200000D01*
X37620000Y-27480000D02*
X47360000Y-27480000D01*
X47360000Y-32920000D01*
X37620000Y-32920000D01*
X37620000Y-27480000D01*
%TO.C,D2*%
X35470000Y-23600000D02*
X34560000Y-23600000D01*
X33135000Y-26320000D02*
X33135000Y-20880000D01*
X33015000Y-26320000D02*
X33015000Y-20880000D01*
X32895000Y-26320000D02*
X32895000Y-20880000D01*
X23910000Y-23600000D02*
X24820000Y-23600000D01*
X24820000Y-20880000D02*
X34560000Y-20880000D01*
X34560000Y-26320000D01*
X24820000Y-26320000D01*
X24820000Y-20880000D01*
%TO.C,Q3*%
X66930000Y-40050000D02*
X66930000Y-29830000D01*
X71550000Y-40050000D02*
X66930000Y-40050000D01*
X71550000Y-36790000D02*
X70170000Y-36790000D01*
X71550000Y-33090000D02*
X70170000Y-33090000D01*
X66930000Y-29830000D02*
X71550000Y-29830000D01*
X70170000Y-29830000D02*
X70170000Y-40050000D01*
X71550000Y-29830000D02*
X71550000Y-40050000D01*
%TO.C,J2*%
X20980000Y-39400000D02*
X20980000Y-37900000D01*
X31980000Y-39400000D02*
X20980000Y-39400000D01*
X19780000Y-37900000D02*
X19780000Y-36400000D01*
X20980000Y-37900000D02*
X19780000Y-37900000D01*
X17980000Y-36400000D02*
X17980000Y-30400000D01*
X19780000Y-36400000D02*
X17980000Y-36400000D01*
X17980000Y-35400000D02*
X20980000Y-35400000D01*
X20980000Y-35400000D02*
X20980000Y-31400000D01*
X20980000Y-31400000D02*
X17980000Y-31400000D01*
X17980000Y-30400000D02*
X19780000Y-30400000D01*
X19780000Y-30400000D02*
X19780000Y-28900000D01*
X19780000Y-28900000D02*
X20980000Y-28900000D01*
X20980000Y-28900000D02*
X20980000Y-27400000D01*
X20980000Y-27400000D02*
X31980000Y-27400000D01*
X31980000Y-27400000D02*
X31980000Y-39400000D01*
%TO.C,J1*%
X83602500Y-30040000D02*
X84212500Y-29600000D01*
X84212500Y-30480000D01*
X83602500Y-30040000D01*
G36*
X84212500Y-30480000D02*
G01*
X83602500Y-30040000D01*
X84212500Y-29600000D01*
X84212500Y-30480000D01*
G37*
X83602500Y-21700000D02*
X83602500Y-29740000D01*
X73112500Y-21700000D02*
X83602500Y-21700000D01*
X83602500Y-30340000D02*
X83602500Y-32700000D01*
X83602500Y-32700000D02*
X73112500Y-32700000D01*
X82482500Y-32700000D02*
X82482500Y-21700000D01*
X74732500Y-32700000D02*
X74732500Y-21700000D01*
X73112500Y-32700000D02*
X73112500Y-21700000D01*
%TO.C,D4*%
X25220000Y-40280000D02*
X34960000Y-40280000D01*
X34960000Y-45720000D01*
X25220000Y-45720000D01*
X25220000Y-40280000D01*
X24310000Y-43000000D02*
X25220000Y-43000000D01*
X33295000Y-45720000D02*
X33295000Y-40280000D01*
X33415000Y-45720000D02*
X33415000Y-40280000D01*
X33535000Y-45720000D02*
X33535000Y-40280000D01*
X35870000Y-43000000D02*
X34960000Y-43000000D01*
%TO.C,RV1*%
D12*
X64181500Y-24830000D02*
G75*
G02*
X63981500Y-24830000I-100000J0D01*
G01*
X63981500Y-24830000D02*
G75*
G02*
X64181500Y-24830000I100000J0D01*
G01*
D13*
X71445500Y-28360000D02*
X64845500Y-28360000D01*
X71445500Y-26065000D02*
X71445500Y-28350000D01*
X71445500Y-21360000D02*
X71445500Y-23525000D01*
X64845500Y-21360000D02*
X71445500Y-21360000D01*
X64845500Y-23525000D02*
X64845500Y-21360000D01*
X64845500Y-28350000D02*
X64845500Y-26065000D01*
%TD*%
M02*
